<?xml version="1.0" encoding="utf-8" standalone="no"?>
<!DOCTYPE svg PUBLIC "-//W3C//DTD SVG 1.1//EN"
  "http://www.w3.org/Graphics/SVG/1.1/DTD/svg11.dtd">
<svg xmlns:xlink="http://www.w3.org/1999/xlink" width="460.8pt" height="345.6pt" viewBox="0 0 460.8 345.6" xmlns="http://www.w3.org/2000/svg" version="1.1">
 <metadata>
  <rdf:RDF xmlns:dc="http://purl.org/dc/elements/1.1/" xmlns:cc="http://creativecommons.org/ns#" xmlns:rdf="http://www.w3.org/1999/02/22-rdf-syntax-ns#">
   <cc:Work>
    <dc:type rdf:resource="http://purl.org/dc/dcmitype/StillImage"/>
    <dc:date>2024-03-11T16:15:37.948657</dc:date>
    <dc:format>image/svg+xml</dc:format>
    <dc:creator>
     <cc:Agent>
      <dc:title>Matplotlib v3.7.3, https://matplotlib.org/</dc:title>
     </cc:Agent>
    </dc:creator>
   </cc:Work>
  </rdf:RDF>
 </metadata>
 <defs>
  <style type="text/css">*{stroke-linejoin: round; stroke-linecap: butt}</style>
 </defs>
 <g id="figure_1">
  <g id="patch_1">
   <path d="M 0 345.6 
L 460.8 345.6 
L 460.8 0 
L 0 0 
z
" style="fill: #ffffff"/>
  </g>
  <g id="axes_1">
   <g id="patch_2">
    <path d="M 57.6 307.584 
L 414.72 307.584 
L 414.72 41.472 
L 57.6 41.472 
z
" style="fill: #ffffff"/>
   </g>
   <g id="matplotlib.axis_1">
    <g id="xtick_1">
     <g id="line2d_1">
      <defs>
       <path id="m725468be35" d="M 0 0 
L 0 3.5 
" style="stroke: #000000; stroke-width: 0.8"/>
      </defs>
      <g>
       <use xlink:href="#m725468be35" x="73.832727" y="307.584" style="stroke: #000000; stroke-width: 0.8"/>
      </g>
     </g>
     <g id="text_1">
      <!-- 0 -->
      <g transform="translate(70.651477 322.182437) scale(0.1 -0.1)">
       <defs>
        <path id="DejaVuSans-30" d="M 2034 4250 
Q 1547 4250 1301 3770 
Q 1056 3291 1056 2328 
Q 1056 1369 1301 889 
Q 1547 409 2034 409 
Q 2525 409 2770 889 
Q 3016 1369 3016 2328 
Q 3016 3291 2770 3770 
Q 2525 4250 2034 4250 
z
M 2034 4750 
Q 2819 4750 3233 4129 
Q 3647 3509 3647 2328 
Q 3647 1150 3233 529 
Q 2819 -91 2034 -91 
Q 1250 -91 836 529 
Q 422 1150 422 2328 
Q 422 3509 836 4129 
Q 1250 4750 2034 4750 
z
" transform="scale(0.015625)"/>
       </defs>
       <use xlink:href="#DejaVuSans-30"/>
      </g>
     </g>
    </g>
    <g id="xtick_2">
     <g id="line2d_2">
      <g>
       <use xlink:href="#m725468be35" x="114.414545" y="307.584" style="stroke: #000000; stroke-width: 0.8"/>
      </g>
     </g>
     <g id="text_2">
      <!-- 50 -->
      <g transform="translate(108.052045 322.182437) scale(0.1 -0.1)">
       <defs>
        <path id="DejaVuSans-35" d="M 691 4666 
L 3169 4666 
L 3169 4134 
L 1269 4134 
L 1269 2991 
Q 1406 3038 1543 3061 
Q 1681 3084 1819 3084 
Q 2600 3084 3056 2656 
Q 3513 2228 3513 1497 
Q 3513 744 3044 326 
Q 2575 -91 1722 -91 
Q 1428 -91 1123 -41 
Q 819 9 494 109 
L 494 744 
Q 775 591 1075 516 
Q 1375 441 1709 441 
Q 2250 441 2565 725 
Q 2881 1009 2881 1497 
Q 2881 1984 2565 2268 
Q 2250 2553 1709 2553 
Q 1456 2553 1204 2497 
Q 953 2441 691 2322 
L 691 4666 
z
" transform="scale(0.015625)"/>
       </defs>
       <use xlink:href="#DejaVuSans-35"/>
       <use xlink:href="#DejaVuSans-30" x="63.623047"/>
      </g>
     </g>
    </g>
    <g id="xtick_3">
     <g id="line2d_3">
      <g>
       <use xlink:href="#m725468be35" x="154.996364" y="307.584" style="stroke: #000000; stroke-width: 0.8"/>
      </g>
     </g>
     <g id="text_3">
      <!-- 100 -->
      <g transform="translate(145.452614 322.182437) scale(0.1 -0.1)">
       <defs>
        <path id="DejaVuSans-31" d="M 794 531 
L 1825 531 
L 1825 4091 
L 703 3866 
L 703 4441 
L 1819 4666 
L 2450 4666 
L 2450 531 
L 3481 531 
L 3481 0 
L 794 0 
L 794 531 
z
" transform="scale(0.015625)"/>
       </defs>
       <use xlink:href="#DejaVuSans-31"/>
       <use xlink:href="#DejaVuSans-30" x="63.623047"/>
       <use xlink:href="#DejaVuSans-30" x="127.246094"/>
      </g>
     </g>
    </g>
    <g id="xtick_4">
     <g id="line2d_4">
      <g>
       <use xlink:href="#m725468be35" x="195.578182" y="307.584" style="stroke: #000000; stroke-width: 0.8"/>
      </g>
     </g>
     <g id="text_4">
      <!-- 150 -->
      <g transform="translate(186.034432 322.182437) scale(0.1 -0.1)">
       <use xlink:href="#DejaVuSans-31"/>
       <use xlink:href="#DejaVuSans-35" x="63.623047"/>
       <use xlink:href="#DejaVuSans-30" x="127.246094"/>
      </g>
     </g>
    </g>
    <g id="xtick_5">
     <g id="line2d_5">
      <g>
       <use xlink:href="#m725468be35" x="236.16" y="307.584" style="stroke: #000000; stroke-width: 0.8"/>
      </g>
     </g>
     <g id="text_5">
      <!-- 200 -->
      <g transform="translate(226.61625 322.182437) scale(0.1 -0.1)">
       <defs>
        <path id="DejaVuSans-32" d="M 1228 531 
L 3431 531 
L 3431 0 
L 469 0 
L 469 531 
Q 828 903 1448 1529 
Q 2069 2156 2228 2338 
Q 2531 2678 2651 2914 
Q 2772 3150 2772 3378 
Q 2772 3750 2511 3984 
Q 2250 4219 1831 4219 
Q 1534 4219 1204 4116 
Q 875 4013 500 3803 
L 500 4441 
Q 881 4594 1212 4672 
Q 1544 4750 1819 4750 
Q 2544 4750 2975 4387 
Q 3406 4025 3406 3419 
Q 3406 3131 3298 2873 
Q 3191 2616 2906 2266 
Q 2828 2175 2409 1742 
Q 1991 1309 1228 531 
z
" transform="scale(0.015625)"/>
       </defs>
       <use xlink:href="#DejaVuSans-32"/>
       <use xlink:href="#DejaVuSans-30" x="63.623047"/>
       <use xlink:href="#DejaVuSans-30" x="127.246094"/>
      </g>
     </g>
    </g>
    <g id="xtick_6">
     <g id="line2d_6">
      <g>
       <use xlink:href="#m725468be35" x="276.741818" y="307.584" style="stroke: #000000; stroke-width: 0.8"/>
      </g>
     </g>
     <g id="text_6">
      <!-- 250 -->
      <g transform="translate(267.198068 322.182437) scale(0.1 -0.1)">
       <use xlink:href="#DejaVuSans-32"/>
       <use xlink:href="#DejaVuSans-35" x="63.623047"/>
       <use xlink:href="#DejaVuSans-30" x="127.246094"/>
      </g>
     </g>
    </g>
    <g id="xtick_7">
     <g id="line2d_7">
      <g>
       <use xlink:href="#m725468be35" x="317.323636" y="307.584" style="stroke: #000000; stroke-width: 0.8"/>
      </g>
     </g>
     <g id="text_7">
      <!-- 300 -->
      <g transform="translate(307.779886 322.182437) scale(0.1 -0.1)">
       <defs>
        <path id="DejaVuSans-33" d="M 2597 2516 
Q 3050 2419 3304 2112 
Q 3559 1806 3559 1356 
Q 3559 666 3084 287 
Q 2609 -91 1734 -91 
Q 1441 -91 1130 -33 
Q 819 25 488 141 
L 488 750 
Q 750 597 1062 519 
Q 1375 441 1716 441 
Q 2309 441 2620 675 
Q 2931 909 2931 1356 
Q 2931 1769 2642 2001 
Q 2353 2234 1838 2234 
L 1294 2234 
L 1294 2753 
L 1863 2753 
Q 2328 2753 2575 2939 
Q 2822 3125 2822 3475 
Q 2822 3834 2567 4026 
Q 2313 4219 1838 4219 
Q 1578 4219 1281 4162 
Q 984 4106 628 3988 
L 628 4550 
Q 988 4650 1302 4700 
Q 1616 4750 1894 4750 
Q 2613 4750 3031 4423 
Q 3450 4097 3450 3541 
Q 3450 3153 3228 2886 
Q 3006 2619 2597 2516 
z
" transform="scale(0.015625)"/>
       </defs>
       <use xlink:href="#DejaVuSans-33"/>
       <use xlink:href="#DejaVuSans-30" x="63.623047"/>
       <use xlink:href="#DejaVuSans-30" x="127.246094"/>
      </g>
     </g>
    </g>
    <g id="xtick_8">
     <g id="line2d_8">
      <g>
       <use xlink:href="#m725468be35" x="357.905455" y="307.584" style="stroke: #000000; stroke-width: 0.8"/>
      </g>
     </g>
     <g id="text_8">
      <!-- 350 -->
      <g transform="translate(348.361705 322.182437) scale(0.1 -0.1)">
       <use xlink:href="#DejaVuSans-33"/>
       <use xlink:href="#DejaVuSans-35" x="63.623047"/>
       <use xlink:href="#DejaVuSans-30" x="127.246094"/>
      </g>
     </g>
    </g>
    <g id="xtick_9">
     <g id="line2d_9">
      <g>
       <use xlink:href="#m725468be35" x="398.487273" y="307.584" style="stroke: #000000; stroke-width: 0.8"/>
      </g>
     </g>
     <g id="text_9">
      <!-- 400 -->
      <g transform="translate(388.943523 322.182437) scale(0.1 -0.1)">
       <defs>
        <path id="DejaVuSans-34" d="M 2419 4116 
L 825 1625 
L 2419 1625 
L 2419 4116 
z
M 2253 4666 
L 3047 4666 
L 3047 1625 
L 3713 1625 
L 3713 1100 
L 3047 1100 
L 3047 0 
L 2419 0 
L 2419 1100 
L 313 1100 
L 313 1709 
L 2253 4666 
z
" transform="scale(0.015625)"/>
       </defs>
       <use xlink:href="#DejaVuSans-34"/>
       <use xlink:href="#DejaVuSans-30" x="63.623047"/>
       <use xlink:href="#DejaVuSans-30" x="127.246094"/>
      </g>
     </g>
    </g>
    <g id="text_10">
     <!-- Samples -->
     <g transform="translate(214.806875 335.860562) scale(0.1 -0.1)">
      <defs>
       <path id="DejaVuSans-53" d="M 3425 4513 
L 3425 3897 
Q 3066 4069 2747 4153 
Q 2428 4238 2131 4238 
Q 1616 4238 1336 4038 
Q 1056 3838 1056 3469 
Q 1056 3159 1242 3001 
Q 1428 2844 1947 2747 
L 2328 2669 
Q 3034 2534 3370 2195 
Q 3706 1856 3706 1288 
Q 3706 609 3251 259 
Q 2797 -91 1919 -91 
Q 1588 -91 1214 -16 
Q 841 59 441 206 
L 441 856 
Q 825 641 1194 531 
Q 1563 422 1919 422 
Q 2459 422 2753 634 
Q 3047 847 3047 1241 
Q 3047 1584 2836 1778 
Q 2625 1972 2144 2069 
L 1759 2144 
Q 1053 2284 737 2584 
Q 422 2884 422 3419 
Q 422 4038 858 4394 
Q 1294 4750 2059 4750 
Q 2388 4750 2728 4690 
Q 3069 4631 3425 4513 
z
" transform="scale(0.015625)"/>
       <path id="DejaVuSans-61" d="M 2194 1759 
Q 1497 1759 1228 1600 
Q 959 1441 959 1056 
Q 959 750 1161 570 
Q 1363 391 1709 391 
Q 2188 391 2477 730 
Q 2766 1069 2766 1631 
L 2766 1759 
L 2194 1759 
z
M 3341 1997 
L 3341 0 
L 2766 0 
L 2766 531 
Q 2569 213 2275 61 
Q 1981 -91 1556 -91 
Q 1019 -91 701 211 
Q 384 513 384 1019 
Q 384 1609 779 1909 
Q 1175 2209 1959 2209 
L 2766 2209 
L 2766 2266 
Q 2766 2663 2505 2880 
Q 2244 3097 1772 3097 
Q 1472 3097 1187 3025 
Q 903 2953 641 2809 
L 641 3341 
Q 956 3463 1253 3523 
Q 1550 3584 1831 3584 
Q 2591 3584 2966 3190 
Q 3341 2797 3341 1997 
z
" transform="scale(0.015625)"/>
       <path id="DejaVuSans-6d" d="M 3328 2828 
Q 3544 3216 3844 3400 
Q 4144 3584 4550 3584 
Q 5097 3584 5394 3201 
Q 5691 2819 5691 2113 
L 5691 0 
L 5113 0 
L 5113 2094 
Q 5113 2597 4934 2840 
Q 4756 3084 4391 3084 
Q 3944 3084 3684 2787 
Q 3425 2491 3425 1978 
L 3425 0 
L 2847 0 
L 2847 2094 
Q 2847 2600 2669 2842 
Q 2491 3084 2119 3084 
Q 1678 3084 1418 2786 
Q 1159 2488 1159 1978 
L 1159 0 
L 581 0 
L 581 3500 
L 1159 3500 
L 1159 2956 
Q 1356 3278 1631 3431 
Q 1906 3584 2284 3584 
Q 2666 3584 2933 3390 
Q 3200 3197 3328 2828 
z
" transform="scale(0.015625)"/>
       <path id="DejaVuSans-70" d="M 1159 525 
L 1159 -1331 
L 581 -1331 
L 581 3500 
L 1159 3500 
L 1159 2969 
Q 1341 3281 1617 3432 
Q 1894 3584 2278 3584 
Q 2916 3584 3314 3078 
Q 3713 2572 3713 1747 
Q 3713 922 3314 415 
Q 2916 -91 2278 -91 
Q 1894 -91 1617 61 
Q 1341 213 1159 525 
z
M 3116 1747 
Q 3116 2381 2855 2742 
Q 2594 3103 2138 3103 
Q 1681 3103 1420 2742 
Q 1159 2381 1159 1747 
Q 1159 1113 1420 752 
Q 1681 391 2138 391 
Q 2594 391 2855 752 
Q 3116 1113 3116 1747 
z
" transform="scale(0.015625)"/>
       <path id="DejaVuSans-6c" d="M 603 4863 
L 1178 4863 
L 1178 0 
L 603 0 
L 603 4863 
z
" transform="scale(0.015625)"/>
       <path id="DejaVuSans-65" d="M 3597 1894 
L 3597 1613 
L 953 1613 
Q 991 1019 1311 708 
Q 1631 397 2203 397 
Q 2534 397 2845 478 
Q 3156 559 3463 722 
L 3463 178 
Q 3153 47 2828 -22 
Q 2503 -91 2169 -91 
Q 1331 -91 842 396 
Q 353 884 353 1716 
Q 353 2575 817 3079 
Q 1281 3584 2069 3584 
Q 2775 3584 3186 3129 
Q 3597 2675 3597 1894 
z
M 3022 2063 
Q 3016 2534 2758 2815 
Q 2500 3097 2075 3097 
Q 1594 3097 1305 2825 
Q 1016 2553 972 2059 
L 3022 2063 
z
" transform="scale(0.015625)"/>
       <path id="DejaVuSans-73" d="M 2834 3397 
L 2834 2853 
Q 2591 2978 2328 3040 
Q 2066 3103 1784 3103 
Q 1356 3103 1142 2972 
Q 928 2841 928 2578 
Q 928 2378 1081 2264 
Q 1234 2150 1697 2047 
L 1894 2003 
Q 2506 1872 2764 1633 
Q 3022 1394 3022 966 
Q 3022 478 2636 193 
Q 2250 -91 1575 -91 
Q 1294 -91 989 -36 
Q 684 19 347 128 
L 347 722 
Q 666 556 975 473 
Q 1284 391 1588 391 
Q 1994 391 2212 530 
Q 2431 669 2431 922 
Q 2431 1156 2273 1281 
Q 2116 1406 1581 1522 
L 1381 1569 
Q 847 1681 609 1914 
Q 372 2147 372 2553 
Q 372 3047 722 3315 
Q 1072 3584 1716 3584 
Q 2034 3584 2315 3537 
Q 2597 3491 2834 3397 
z
" transform="scale(0.015625)"/>
      </defs>
      <use xlink:href="#DejaVuSans-53"/>
      <use xlink:href="#DejaVuSans-61" x="63.476562"/>
      <use xlink:href="#DejaVuSans-6d" x="124.755859"/>
      <use xlink:href="#DejaVuSans-70" x="222.167969"/>
      <use xlink:href="#DejaVuSans-6c" x="285.644531"/>
      <use xlink:href="#DejaVuSans-65" x="313.427734"/>
      <use xlink:href="#DejaVuSans-73" x="374.951172"/>
     </g>
    </g>
   </g>
   <g id="matplotlib.axis_2">
    <g id="ytick_1">
     <g id="line2d_10">
      <defs>
       <path id="m197a4df9af" d="M 0 0 
L -3.5 0 
" style="stroke: #000000; stroke-width: 0.8"/>
      </defs>
      <g>
       <use xlink:href="#m197a4df9af" x="57.6" y="281.559043" style="stroke: #000000; stroke-width: 0.8"/>
      </g>
     </g>
     <g id="text_11">
      <!-- −0.025 -->
      <g transform="translate(13.592188 285.358262) scale(0.1 -0.1)">
       <defs>
        <path id="DejaVuSans-2212" d="M 678 2272 
L 4684 2272 
L 4684 1741 
L 678 1741 
L 678 2272 
z
" transform="scale(0.015625)"/>
        <path id="DejaVuSans-2e" d="M 684 794 
L 1344 794 
L 1344 0 
L 684 0 
L 684 794 
z
" transform="scale(0.015625)"/>
       </defs>
       <use xlink:href="#DejaVuSans-2212"/>
       <use xlink:href="#DejaVuSans-30" x="83.789062"/>
       <use xlink:href="#DejaVuSans-2e" x="147.412109"/>
       <use xlink:href="#DejaVuSans-30" x="179.199219"/>
       <use xlink:href="#DejaVuSans-32" x="242.822266"/>
       <use xlink:href="#DejaVuSans-35" x="306.445312"/>
      </g>
     </g>
    </g>
    <g id="ytick_2">
     <g id="line2d_11">
      <g>
       <use xlink:href="#m197a4df9af" x="57.6" y="246.433097" style="stroke: #000000; stroke-width: 0.8"/>
      </g>
     </g>
     <g id="text_12">
      <!-- −0.020 -->
      <g transform="translate(13.592188 250.232316) scale(0.1 -0.1)">
       <use xlink:href="#DejaVuSans-2212"/>
       <use xlink:href="#DejaVuSans-30" x="83.789062"/>
       <use xlink:href="#DejaVuSans-2e" x="147.412109"/>
       <use xlink:href="#DejaVuSans-30" x="179.199219"/>
       <use xlink:href="#DejaVuSans-32" x="242.822266"/>
       <use xlink:href="#DejaVuSans-30" x="306.445312"/>
      </g>
     </g>
    </g>
    <g id="ytick_3">
     <g id="line2d_12">
      <g>
       <use xlink:href="#m197a4df9af" x="57.6" y="211.307151" style="stroke: #000000; stroke-width: 0.8"/>
      </g>
     </g>
     <g id="text_13">
      <!-- −0.015 -->
      <g transform="translate(13.592188 215.10637) scale(0.1 -0.1)">
       <use xlink:href="#DejaVuSans-2212"/>
       <use xlink:href="#DejaVuSans-30" x="83.789062"/>
       <use xlink:href="#DejaVuSans-2e" x="147.412109"/>
       <use xlink:href="#DejaVuSans-30" x="179.199219"/>
       <use xlink:href="#DejaVuSans-31" x="242.822266"/>
       <use xlink:href="#DejaVuSans-35" x="306.445312"/>
      </g>
     </g>
    </g>
    <g id="ytick_4">
     <g id="line2d_13">
      <g>
       <use xlink:href="#m197a4df9af" x="57.6" y="176.181205" style="stroke: #000000; stroke-width: 0.8"/>
      </g>
     </g>
     <g id="text_14">
      <!-- −0.010 -->
      <g transform="translate(13.592188 179.980424) scale(0.1 -0.1)">
       <use xlink:href="#DejaVuSans-2212"/>
       <use xlink:href="#DejaVuSans-30" x="83.789062"/>
       <use xlink:href="#DejaVuSans-2e" x="147.412109"/>
       <use xlink:href="#DejaVuSans-30" x="179.199219"/>
       <use xlink:href="#DejaVuSans-31" x="242.822266"/>
       <use xlink:href="#DejaVuSans-30" x="306.445312"/>
      </g>
     </g>
    </g>
    <g id="ytick_5">
     <g id="line2d_14">
      <g>
       <use xlink:href="#m197a4df9af" x="57.6" y="141.055259" style="stroke: #000000; stroke-width: 0.8"/>
      </g>
     </g>
     <g id="text_15">
      <!-- −0.005 -->
      <g transform="translate(13.592188 144.854477) scale(0.1 -0.1)">
       <use xlink:href="#DejaVuSans-2212"/>
       <use xlink:href="#DejaVuSans-30" x="83.789062"/>
       <use xlink:href="#DejaVuSans-2e" x="147.412109"/>
       <use xlink:href="#DejaVuSans-30" x="179.199219"/>
       <use xlink:href="#DejaVuSans-30" x="242.822266"/>
       <use xlink:href="#DejaVuSans-35" x="306.445312"/>
      </g>
     </g>
    </g>
    <g id="ytick_6">
     <g id="line2d_15">
      <g>
       <use xlink:href="#m197a4df9af" x="57.6" y="105.929313" style="stroke: #000000; stroke-width: 0.8"/>
      </g>
     </g>
     <g id="text_16">
      <!-- 0.000 -->
      <g transform="translate(21.971875 109.728531) scale(0.1 -0.1)">
       <use xlink:href="#DejaVuSans-30"/>
       <use xlink:href="#DejaVuSans-2e" x="63.623047"/>
       <use xlink:href="#DejaVuSans-30" x="95.410156"/>
       <use xlink:href="#DejaVuSans-30" x="159.033203"/>
       <use xlink:href="#DejaVuSans-30" x="222.65625"/>
      </g>
     </g>
    </g>
    <g id="ytick_7">
     <g id="line2d_16">
      <g>
       <use xlink:href="#m197a4df9af" x="57.6" y="70.803366" style="stroke: #000000; stroke-width: 0.8"/>
      </g>
     </g>
     <g id="text_17">
      <!-- 0.005 -->
      <g transform="translate(21.971875 74.602585) scale(0.1 -0.1)">
       <use xlink:href="#DejaVuSans-30"/>
       <use xlink:href="#DejaVuSans-2e" x="63.623047"/>
       <use xlink:href="#DejaVuSans-30" x="95.410156"/>
       <use xlink:href="#DejaVuSans-30" x="159.033203"/>
       <use xlink:href="#DejaVuSans-35" x="222.65625"/>
      </g>
     </g>
    </g>
    <g id="text_18">
     <!-- X Acceleration -->
     <g transform="translate(7.5125 210.612375) rotate(-90) scale(0.1 -0.1)">
      <defs>
       <path id="DejaVuSans-58" d="M 403 4666 
L 1081 4666 
L 2241 2931 
L 3406 4666 
L 4084 4666 
L 2584 2425 
L 4184 0 
L 3506 0 
L 2194 1984 
L 872 0 
L 191 0 
L 1856 2491 
L 403 4666 
z
" transform="scale(0.015625)"/>
       <path id="DejaVuSans-20" transform="scale(0.015625)"/>
       <path id="DejaVuSans-41" d="M 2188 4044 
L 1331 1722 
L 3047 1722 
L 2188 4044 
z
M 1831 4666 
L 2547 4666 
L 4325 0 
L 3669 0 
L 3244 1197 
L 1141 1197 
L 716 0 
L 50 0 
L 1831 4666 
z
" transform="scale(0.015625)"/>
       <path id="DejaVuSans-63" d="M 3122 3366 
L 3122 2828 
Q 2878 2963 2633 3030 
Q 2388 3097 2138 3097 
Q 1578 3097 1268 2742 
Q 959 2388 959 1747 
Q 959 1106 1268 751 
Q 1578 397 2138 397 
Q 2388 397 2633 464 
Q 2878 531 3122 666 
L 3122 134 
Q 2881 22 2623 -34 
Q 2366 -91 2075 -91 
Q 1284 -91 818 406 
Q 353 903 353 1747 
Q 353 2603 823 3093 
Q 1294 3584 2113 3584 
Q 2378 3584 2631 3529 
Q 2884 3475 3122 3366 
z
" transform="scale(0.015625)"/>
       <path id="DejaVuSans-72" d="M 2631 2963 
Q 2534 3019 2420 3045 
Q 2306 3072 2169 3072 
Q 1681 3072 1420 2755 
Q 1159 2438 1159 1844 
L 1159 0 
L 581 0 
L 581 3500 
L 1159 3500 
L 1159 2956 
Q 1341 3275 1631 3429 
Q 1922 3584 2338 3584 
Q 2397 3584 2469 3576 
Q 2541 3569 2628 3553 
L 2631 2963 
z
" transform="scale(0.015625)"/>
       <path id="DejaVuSans-74" d="M 1172 4494 
L 1172 3500 
L 2356 3500 
L 2356 3053 
L 1172 3053 
L 1172 1153 
Q 1172 725 1289 603 
Q 1406 481 1766 481 
L 2356 481 
L 2356 0 
L 1766 0 
Q 1100 0 847 248 
Q 594 497 594 1153 
L 594 3053 
L 172 3053 
L 172 3500 
L 594 3500 
L 594 4494 
L 1172 4494 
z
" transform="scale(0.015625)"/>
       <path id="DejaVuSans-69" d="M 603 3500 
L 1178 3500 
L 1178 0 
L 603 0 
L 603 3500 
z
M 603 4863 
L 1178 4863 
L 1178 4134 
L 603 4134 
L 603 4863 
z
" transform="scale(0.015625)"/>
       <path id="DejaVuSans-6f" d="M 1959 3097 
Q 1497 3097 1228 2736 
Q 959 2375 959 1747 
Q 959 1119 1226 758 
Q 1494 397 1959 397 
Q 2419 397 2687 759 
Q 2956 1122 2956 1747 
Q 2956 2369 2687 2733 
Q 2419 3097 1959 3097 
z
M 1959 3584 
Q 2709 3584 3137 3096 
Q 3566 2609 3566 1747 
Q 3566 888 3137 398 
Q 2709 -91 1959 -91 
Q 1206 -91 779 398 
Q 353 888 353 1747 
Q 353 2609 779 3096 
Q 1206 3584 1959 3584 
z
" transform="scale(0.015625)"/>
       <path id="DejaVuSans-6e" d="M 3513 2113 
L 3513 0 
L 2938 0 
L 2938 2094 
Q 2938 2591 2744 2837 
Q 2550 3084 2163 3084 
Q 1697 3084 1428 2787 
Q 1159 2491 1159 1978 
L 1159 0 
L 581 0 
L 581 3500 
L 1159 3500 
L 1159 2956 
Q 1366 3272 1645 3428 
Q 1925 3584 2291 3584 
Q 2894 3584 3203 3211 
Q 3513 2838 3513 2113 
z
" transform="scale(0.015625)"/>
      </defs>
      <use xlink:href="#DejaVuSans-58"/>
      <use xlink:href="#DejaVuSans-20" x="68.505859"/>
      <use xlink:href="#DejaVuSans-41" x="100.292969"/>
      <use xlink:href="#DejaVuSans-63" x="166.951172"/>
      <use xlink:href="#DejaVuSans-63" x="221.931641"/>
      <use xlink:href="#DejaVuSans-65" x="276.912109"/>
      <use xlink:href="#DejaVuSans-6c" x="338.435547"/>
      <use xlink:href="#DejaVuSans-65" x="366.21875"/>
      <use xlink:href="#DejaVuSans-72" x="427.742188"/>
      <use xlink:href="#DejaVuSans-61" x="468.855469"/>
      <use xlink:href="#DejaVuSans-74" x="530.134766"/>
      <use xlink:href="#DejaVuSans-69" x="569.34375"/>
      <use xlink:href="#DejaVuSans-6f" x="597.126953"/>
      <use xlink:href="#DejaVuSans-6e" x="658.308594"/>
     </g>
    </g>
   </g>
   <g id="line2d_17">
    <path d="M 73.832727 207.769298 
L 74.644364 218.865774 
L 75.456 218.601014 
L 76.267636 219.795162 
L 77.079273 220.709988 
L 77.890909 211.326316 
L 78.702545 218.923056 
L 79.514182 220.584573 
L 80.325818 220.211112 
L 81.137455 220.131014 
L 81.949091 196.746745 
L 82.760727 208.952828 
L 83.572364 206.457411 
L 84.384 200.057022 
L 85.195636 208.727078 
L 86.007273 199.392845 
L 86.818909 208.113149 
L 87.630545 196.677238 
L 88.442182 196.273141 
L 89.253818 189.113672 
L 90.065455 207.490181 
L 90.877091 208.231543 
L 91.688727 221.910435 
L 92.500364 217.018222 
L 93.312 231.025644 
L 94.123636 260.67464 
L 94.935273 231.847423 
L 95.746909 236.285167 
L 96.558545 209.650603 
L 97.370182 203.249822 
L 98.181818 220.667802 
L 98.993455 218.301495 
L 99.805091 218.453596 
L 100.616727 230.137351 
L 101.428364 210.056432 
L 102.24 197.61671 
L 103.051636 222.063043 
L 103.863273 199.587455 
L 104.674909 229.143622 
L 105.486545 198.168146 
L 106.298182 234.114705 
L 107.109818 217.05438 
L 107.921455 213.176392 
L 108.733091 243.438532 
L 109.544727 208.29281 
L 110.356364 221.984057 
L 111.168 177.793316 
L 111.979636 227.620378 
L 112.791273 216.545038 
L 113.602909 201.230919 
L 114.414545 198.576166 
L 115.226182 203.16585 
L 116.037818 177.110355 
L 116.849455 211.779837 
L 117.661091 239.186815 
L 118.472727 239.462729 
L 119.284364 238.960213 
L 120.096 215.37395 
L 120.907636 244.26458 
L 121.719273 204.222737 
L 122.530909 204.206434 
L 123.342545 185.398276 
L 124.154182 206.052477 
L 124.965818 198.25283 
L 125.777455 216.667963 
L 126.589091 220.955487 
L 127.400727 292.705979 
L 128.212364 210.577317 
L 129.024 206.131001 
L 129.835636 214.820682 
L 130.647273 204.78975 
L 131.458909 224.831067 
L 132.270545 210.737802 
L 133.893818 201.518212 
L 134.705455 208.540599 
L 135.517091 195.360151 
L 136.328727 213.046852 
L 137.140364 203.601225 
L 137.952 275.313426 
L 138.763636 226.06008 
L 139.575273 241.546225 
L 140.386909 295.488 
L 141.198545 224.665362 
L 142.010182 210.993887 
L 142.821818 237.989894 
L 143.633455 206.117534 
L 144.445091 199.277561 
L 145.256727 214.10935 
L 146.068364 201.134908 
L 146.88 221.350994 
L 147.691636 225.991875 
L 148.503273 200.119683 
L 149.314909 214.507792 
L 150.126545 256.62589 
L 150.938182 218.531089 
L 151.749818 223.064062 
L 152.561455 228.367258 
L 153.373091 250.594616 
L 154.184727 233.384897 
L 154.996364 151.658925 
L 155.808 205.803871 
L 156.619636 211.273882 
L 158.242909 184.420653 
L 159.054545 156.793989 
L 159.866182 220.349001 
L 160.677818 186.41255 
L 161.489455 225.322596 
L 162.301091 243.487991 
L 163.112727 266.777664 
L 163.924364 253.097029 
L 164.736 236.871416 
L 165.547636 229.348716 
L 166.359273 198.665935 
L 167.170909 182.964159 
L 167.982545 203.449277 
L 168.794182 218.456937 
L 169.605818 223.152551 
L 170.417455 220.861625 
L 171.229091 226.353113 
L 172.040727 209.039563 
L 172.852364 255.52042 
L 173.664 203.219668 
L 174.475636 227.279996 
L 175.287273 210.403275 
L 176.098909 213.254591 
L 176.910545 195.656211 
L 177.722182 234.721225 
L 178.533818 238.14286 
L 179.345455 244.760568 
L 180.157091 240.613416 
L 180.968727 225.206625 
L 181.780364 220.54428 
L 182.592 223.837412 
L 183.403636 209.329318 
L 184.215273 208.359499 
L 185.026909 205.663729 
L 185.838545 211.338681 
L 186.650182 211.666241 
L 187.461818 240.770653 
L 188.273455 246.365858 
L 189.085091 234.880841 
L 189.896727 235.146778 
L 190.708364 253.267255 
L 191.52 262.605087 
L 192.331636 221.067386 
L 193.143273 188.338347 
L 193.954909 205.911055 
L 194.766545 212.86976 
L 195.578182 226.491623 
L 196.389818 227.864771 
L 197.201455 203.97 
L 198.013091 247.742005 
L 198.824727 245.209192 
L 199.636364 210.963659 
L 200.448 219.369709 
L 201.259636 219.077532 
L 202.071273 195.966398 
L 202.882909 209.033222 
L 203.694545 229.135522 
L 204.506182 229.474659 
L 205.317818 277.057743 
L 206.129455 264.057556 
L 206.941091 258.297122 
L 207.752727 238.050371 
L 208.564364 214.952587 
L 209.376 166.471513 
L 210.187636 200.326892 
L 210.999273 225.002218 
L 211.810909 244.449424 
L 212.622545 253.424715 
L 213.434182 251.985683 
L 214.245818 285.711359 
L 215.057455 240.332158 
L 215.869091 226.833191 
L 216.680727 236.675502 
L 217.492364 223.221236 
L 218.304 234.977404 
L 219.115636 240.913597 
L 219.927273 195.841421 
L 220.738909 192.066551 
L 221.550545 270.89611 
L 222.362182 243.199987 
L 223.173818 238.330295 
L 223.985455 215.454862 
L 224.797091 200.719561 
L 225.608727 221.770823 
L 226.420364 194.91688 
L 227.232 203.175283 
L 228.043636 200.132634 
L 228.855273 170.912747 
L 229.666909 237.587209 
L 230.478545 243.848253 
L 231.290182 263.5212 
L 232.101818 254.800268 
L 232.913455 233.245355 
L 233.725091 218.651165 
L 234.536727 264.976274 
L 235.348364 214.922506 
L 236.16 217.055213 
L 236.971636 217.880293 
L 237.783273 227.996599 
L 238.594909 234.092559 
L 239.406545 218.911188 
L 240.218182 227.320355 
L 241.029818 294.508888 
L 241.841455 230.075324 
L 242.653091 253.142637 
L 243.464727 255.305896 
L 244.276364 242.187418 
L 245.899636 205.358704 
L 247.522909 247.852873 
L 248.334545 242.709227 
L 249.146182 241.928132 
L 249.957818 214.974897 
L 250.769455 180.471143 
L 251.581091 207.698852 
L 252.392727 222.386092 
L 253.204364 244.987918 
L 254.016 230.136915 
L 254.827636 225.96663 
L 255.639273 233.028802 
L 256.450909 209.257614 
L 258.074182 241.525686 
L 258.885818 248.518894 
L 259.697455 236.384587 
L 260.509091 239.307213 
L 261.320727 226.600062 
L 262.944 196.623274 
L 263.755636 208.233721 
L 264.567273 224.317736 
L 265.378909 236.580295 
L 266.190545 243.636963 
L 267.002182 244.1607 
L 267.813818 238.401872 
L 268.625455 242.774197 
L 269.437091 249.18183 
L 270.248727 210.515196 
L 271.060364 226.346199 
L 271.872 216.849898 
L 272.683636 252.8484 
L 273.495273 256.95954 
L 274.306909 232.383244 
L 275.118545 212.396895 
L 275.930182 212.182871 
L 276.741818 208.965156 
L 277.553455 201.440148 
L 278.365091 201.219768 
L 279.176727 235.787465 
L 279.988364 241.231619 
L 280.8 256.932128 
L 281.611636 254.010029 
L 282.423273 252.249087 
L 283.234909 228.787652 
L 284.046545 210.856828 
L 284.858182 218.602587 
L 285.669818 231.198843 
L 286.481455 229.129723 
L 287.293091 223.507444 
L 288.104727 218.68151 
L 288.916364 241.709087 
L 289.728 251.54395 
L 290.539636 237.34066 
L 291.351273 220.526603 
L 292.162909 223.899108 
L 292.974545 194.565133 
L 293.786182 233.058971 
L 294.597818 205.133703 
L 295.409455 226.167377 
L 296.221091 223.184115 
L 297.844364 239.28994 
L 298.656 238.277768 
L 299.467636 241.94272 
L 300.279273 242.089002 
L 301.090909 237.8231 
L 301.902545 229.841498 
L 302.714182 227.569037 
L 303.525818 219.804873 
L 305.149091 232.709403 
L 305.960727 234.341057 
L 306.772364 228.376979 
L 307.584 232.827084 
L 308.395636 220.598305 
L 309.207273 218.983886 
L 310.018909 227.438863 
L 310.830545 213.00459 
L 311.642182 234.029461 
L 312.453818 227.744622 
L 313.265455 231.281617 
L 314.077091 230.915996 
L 314.888727 236.124292 
L 315.700364 232.379105 
L 316.512 233.04533 
L 317.323636 231.617014 
L 318.135273 223.599133 
L 318.946909 232.990264 
L 319.758545 237.754646 
L 320.570182 243.515931 
L 321.381818 240.687046 
L 322.193455 232.062402 
L 323.005091 230.366008 
L 323.816727 241.731065 
L 324.628364 237.641034 
L 326.251636 221.308194 
L 327.063273 225.250587 
L 327.874909 225.074277 
L 328.686545 229.457067 
L 330.309818 230.406737 
L 331.121455 223.276388 
L 331.933091 232.02027 
L 332.744727 224.765617 
L 333.556364 227.239289 
L 334.368 228.755173 
L 335.179636 227.455377 
L 335.991273 231.769233 
L 336.802909 221.833877 
L 337.614545 226.222275 
L 338.426182 227.304619 
L 339.237818 231.608498 
L 340.049455 239.47876 
L 340.861091 243.60743 
L 341.672727 247.130431 
L 342.484364 231.754618 
L 343.296 246.399852 
L 344.107636 224.615935 
L 344.919273 234.307213 
L 345.730909 226.592093 
L 346.542545 228.23967 
L 347.354182 231.546991 
L 348.165818 234.379708 
L 348.977455 237.766838 
L 349.789091 237.767071 
L 350.600727 235.664402 
L 351.412364 232.953187 
L 352.224 224.481991 
L 353.035636 237.430166 
L 353.847273 231.800219 
L 354.658909 237.749822 
L 355.470545 235.132163 
L 356.282182 224.005902 
L 357.093818 224.067739 
L 357.905455 226.54839 
L 358.717091 224.575778 
L 359.528727 224.288471 
L 360.340364 233.616761 
L 361.152 235.334863 
L 361.963636 233.341827 
L 362.775273 236.370444 
L 363.586909 240.575429 
L 364.398545 226.966688 
L 365.210182 218.705654 
L 366.021818 230.036471 
L 366.833455 229.587183 
L 367.645091 239.477417 
L 368.456727 234.031705 
L 369.268364 242.763652 
L 370.08 241.572251 
L 370.891636 238.711714 
L 371.703273 249.50635 
L 372.514909 221.354918 
L 373.326545 231.761279 
L 374.138182 229.074494 
L 374.949818 228.605612 
L 375.761455 229.901185 
L 376.573091 231.994482 
L 377.384727 220.647019 
L 378.196364 233.640142 
L 379.008 239.225844 
L 379.819636 231.309787 
L 380.631273 229.51636 
L 381.442909 229.690139 
L 382.254545 237.794292 
L 383.066182 224.763932 
L 383.877818 233.843713 
L 384.689455 237.85602 
L 385.501091 234.723138 
L 386.312727 233.599135 
L 387.124364 237.493265 
L 387.936 244.516529 
L 388.747636 247.575895 
L 389.559273 237.477553 
L 390.370909 240.125611 
L 391.182545 231.698594 
L 391.994182 227.341574 
L 392.805818 232.481891 
L 393.617455 232.597142 
L 394.429091 227.208171 
L 395.240727 225.786256 
L 396.052364 233.844791 
L 396.864 234.895855 
L 397.675636 239.743979 
L 398.487273 239.812468 
L 398.487273 239.812468 
" clip-path="url(#pfe08b45137)" style="fill: none; stroke: #ffa500; stroke-width: 1.5; stroke-linecap: square"/>
   </g>
   <g id="line2d_18">
    <path d="M 73.832727 189.752791 
L 75.456 145.474336 
L 76.267636 162.038698 
L 77.079273 157.944869 
L 77.890909 163.62291 
L 78.702545 168.05637 
L 79.514182 197.202456 
L 80.325818 195.855319 
L 81.137455 187.27481 
L 81.949091 168.44339 
L 82.760727 179.227198 
L 83.572364 183.883656 
L 84.384 169.843394 
L 85.195636 173.174716 
L 86.007273 131.644889 
L 87.630545 215.973995 
L 88.442182 235.080141 
L 89.253818 229.045352 
L 90.065455 215.875207 
L 90.877091 220.766082 
L 91.688727 197.679505 
L 92.500364 169.388306 
L 93.312 148.073431 
L 94.123636 152.022803 
L 94.935273 136.247948 
L 95.746909 180.082829 
L 96.558545 190.533671 
L 97.370182 180.044573 
L 98.181818 157.890572 
L 98.993455 196.70425 
L 99.805091 198.014353 
L 100.616727 199.955848 
L 101.428364 196.263095 
L 103.863273 159.886362 
L 104.674909 131.051704 
L 105.486545 154.195503 
L 106.298182 158.058806 
L 107.109818 160.177856 
L 107.921455 214.995799 
L 108.733091 159.070204 
L 109.544727 172.141573 
L 110.356364 210.634435 
L 111.168 181.265304 
L 111.979636 182.554312 
L 112.791273 186.667676 
L 113.602909 173.32171 
L 114.414545 177.306957 
L 115.226182 103.130203 
L 116.037818 201.641561 
L 116.849455 185.897976 
L 117.661091 137.597722 
L 118.472727 167.61914 
L 119.284364 173.781441 
L 120.096 103.197655 
L 120.907636 150.205832 
L 121.719273 188.415631 
L 122.530909 202.880179 
L 123.342545 207.431863 
L 124.154182 245.403565 
L 124.965818 195.996765 
L 125.777455 178.550711 
L 126.589091 178.459353 
L 127.400727 168.167686 
L 128.212364 165.450165 
L 129.024 133.042911 
L 129.835636 123.280006 
L 130.647273 172.510743 
L 131.458909 198.177779 
L 132.270545 201.451859 
L 133.082182 233.991381 
L 133.893818 217.334166 
L 134.705455 185.90763 
L 135.517091 179.083425 
L 136.328727 97.829182 
L 137.140364 114.944208 
L 137.952 135.062486 
L 138.763636 158.239636 
L 139.575273 198.59458 
L 140.386909 177.855604 
L 141.198545 202.659769 
L 142.010182 263.11533 
L 142.821818 238.445744 
L 144.445091 148.040101 
L 145.256727 159.693015 
L 146.068364 127.460309 
L 146.88 146.810336 
L 147.691636 141.607287 
L 148.503273 165.477926 
L 149.314909 212.96163 
L 150.938182 190.689168 
L 151.749818 166.820219 
L 152.561455 181.193084 
L 153.373091 169.533569 
L 154.184727 165.262928 
L 154.996364 105.1423 
L 155.808 128.39005 
L 156.619636 130.48156 
L 157.431273 179.895574 
L 158.242909 246.202373 
L 159.054545 250.021877 
L 159.866182 149.844453 
L 160.677818 150.321566 
L 161.489455 143.223581 
L 163.112727 126.509886 
L 163.924364 181.34023 
L 164.736 206.160242 
L 165.547636 208.910929 
L 166.359273 250.575102 
L 167.170909 224.642451 
L 167.982545 203.380942 
L 168.794182 186.699562 
L 169.605818 186.838907 
L 170.417455 160.285405 
L 171.229091 125.776812 
L 172.040727 129.149849 
L 172.852364 182.222262 
L 173.664 193.0434 
L 174.475636 248.993926 
L 175.287273 176.041156 
L 176.098909 186.194985 
L 176.910545 179.446177 
L 177.722182 141.460537 
L 178.533818 146.751367 
L 179.345455 154.327176 
L 180.157091 159.146058 
L 180.968727 149.025351 
L 181.780364 222.765962 
L 182.592 195.191433 
L 183.403636 229.887922 
L 184.215273 147.732779 
L 185.026909 103.16283 
L 185.838545 139.402053 
L 186.650182 137.272166 
L 187.461818 149.197225 
L 188.273455 158.653848 
L 189.085091 183.488123 
L 189.896727 180.594963 
L 190.708364 198.02615 
L 191.52 202.55028 
L 192.331636 141.00809 
L 193.143273 160.872761 
L 193.954909 205.057683 
L 194.766545 182.980316 
L 195.578182 235.012497 
L 196.389818 184.188071 
L 197.201455 170.210876 
L 198.013091 169.824662 
L 199.636364 135.206555 
L 200.448 170.326105 
L 201.259636 149.133497 
L 202.071273 198.18099 
L 202.882909 188.563031 
L 203.694545 172.658158 
L 204.506182 119.386198 
L 205.317818 176.943808 
L 206.129455 208.826199 
L 206.941091 208.692372 
L 207.752727 189.371527 
L 208.564364 195.551696 
L 209.376 53.568 
L 210.187636 194.385711 
L 210.999273 135.346849 
L 211.810909 178.019443 
L 212.622545 158.555965 
L 213.434182 184.421749 
L 214.245818 219.803766 
L 215.057455 232.983203 
L 215.869091 132.432319 
L 216.680727 137.472475 
L 217.492364 134.569464 
L 218.304 169.664635 
L 219.115636 156.057931 
L 219.927273 144.638022 
L 220.738909 184.9208 
L 221.550545 258.256078 
L 222.362182 251.084657 
L 223.173818 183.691812 
L 223.985455 175.731273 
L 224.797091 260.208101 
L 225.608727 180.757986 
L 226.420364 255.134942 
L 227.232 248.507923 
L 228.043636 235.669486 
L 228.855273 156.60754 
L 229.666909 106.536106 
L 230.478545 195.625823 
L 231.290182 224.634863 
L 232.101818 175.250659 
L 232.913455 71.005521 
L 233.725091 86.008699 
L 234.536727 207.858634 
L 235.348364 161.617765 
L 236.16 101.89949 
L 236.971636 63.567773 
L 237.783273 248.131855 
L 238.594909 196.28869 
L 239.406545 80.942768 
L 240.218182 89.604849 
L 241.029818 160.261541 
L 241.841455 148.473162 
L 242.653091 116.138604 
L 243.464727 108.68951 
L 244.276364 115.258748 
L 245.088 118.028979 
L 246.711273 214.852701 
L 247.522909 189.056376 
L 248.334545 143.575335 
L 249.146182 152.355322 
L 249.957818 146.964899 
L 250.769455 204.891002 
L 251.581091 184.261363 
L 252.392727 146.729555 
L 253.204364 120.275635 
L 254.016 129.276172 
L 254.827636 170.561215 
L 255.639273 128.609546 
L 256.450909 118.789846 
L 257.262545 151.790291 
L 258.074182 173.784722 
L 259.697455 151.534117 
L 260.509091 136.825163 
L 261.320727 112.498702 
L 262.944 208.868361 
L 263.755636 201.531018 
L 264.567273 191.924876 
L 265.378909 158.628378 
L 266.190545 83.524781 
L 267.002182 111.561772 
L 267.813818 125.94541 
L 268.625455 162.920178 
L 269.437091 158.837454 
L 270.248727 170.187874 
L 271.060364 188.568649 
L 271.872 212.25633 
L 272.683636 182.629481 
L 273.495273 173.973356 
L 274.306909 156.340744 
L 275.118545 157.879677 
L 275.930182 130.19656 
L 276.741818 172.79784 
L 277.553455 155.737177 
L 278.365091 197.236175 
L 279.176727 133.495767 
L 279.988364 159.009264 
L 280.8 171.203939 
L 281.611636 169.438191 
L 282.423273 173.482478 
L 283.234909 188.874645 
L 284.046545 169.029459 
L 284.858182 142.318294 
L 285.669818 156.149361 
L 286.481455 182.344036 
L 287.293091 203.923654 
L 288.104727 187.267804 
L 288.916364 175.973961 
L 289.728 167.381577 
L 290.539636 144.889851 
L 291.351273 165.102925 
L 292.162909 149.708422 
L 292.974545 145.544426 
L 293.786182 179.09122 
L 294.597818 183.880701 
L 295.409455 156.322853 
L 296.221091 191.562613 
L 297.032727 188.909946 
L 297.844364 157.599771 
L 298.656 109.206674 
L 299.467636 96.456588 
L 300.279273 127.406033 
L 301.902545 164.64673 
L 302.714182 188.203344 
L 303.525818 188.815425 
L 304.337455 198.030337 
L 305.149091 193.784135 
L 305.960727 160.490212 
L 306.772364 147.981177 
L 307.584 149.355861 
L 308.395636 146.974974 
L 309.207273 150.68687 
L 310.018909 160.18808 
L 310.830545 159.454938 
L 311.642182 183.290051 
L 312.453818 212.078129 
L 313.265455 207.022859 
L 314.077091 209.574954 
L 315.700364 138.681258 
L 316.512 117.103072 
L 317.323636 101.046198 
L 318.135273 129.018039 
L 318.946909 172.959554 
L 319.758545 188.498203 
L 320.570182 196.797137 
L 321.381818 189.916082 
L 322.193455 191.506092 
L 323.005091 202.635339 
L 323.816727 186.06184 
L 324.628364 159.792081 
L 325.44 158.842464 
L 326.251636 175.557321 
L 327.063273 172.896947 
L 327.874909 162.03627 
L 329.498182 186.90492 
L 330.309818 180.84419 
L 331.121455 171.103213 
L 331.933091 186.417047 
L 332.744727 183.348224 
L 333.556364 174.71962 
L 334.368 149.085996 
L 335.179636 151.186853 
L 335.991273 130.290102 
L 336.802909 137.071318 
L 337.614545 129.118448 
L 339.237818 182.248234 
L 340.049455 184.668296 
L 340.861091 179.393065 
L 341.672727 182.850386 
L 342.484364 191.253762 
L 343.296 178.728549 
L 344.107636 176.800851 
L 344.919273 159.882119 
L 345.730909 119.782042 
L 346.542545 114.975556 
L 347.354182 145.811105 
L 348.165818 166.187836 
L 348.977455 176.888095 
L 349.789091 191.141133 
L 350.600727 176.058162 
L 351.412364 174.505511 
L 352.224 164.96451 
L 353.035636 152.968406 
L 353.847273 157.911069 
L 354.658909 151.959637 
L 356.282182 163.835426 
L 357.093818 159.696601 
L 357.905455 184.032068 
L 358.717091 176.437283 
L 359.528727 160.848024 
L 360.340364 167.220153 
L 361.152 141.75417 
L 361.963636 144.556522 
L 362.775273 157.252115 
L 363.586909 160.5457 
L 364.398545 173.937486 
L 365.210182 206.884572 
L 366.021818 195.261014 
L 366.833455 173.933656 
L 367.645091 171.758959 
L 368.456727 186.976946 
L 369.268364 159.965443 
L 370.08 176.447755 
L 370.891636 174.31608 
L 371.703273 176.811934 
L 372.514909 166.277495 
L 373.326545 164.273039 
L 374.949818 188.199832 
L 375.761455 168.359605 
L 376.573091 164.511147 
L 377.384727 150.252091 
L 378.196364 159.99165 
L 379.008 182.368644 
L 379.819636 192.686938 
L 380.631273 192.844867 
L 381.442909 190.081209 
L 382.254545 182.103264 
L 383.066182 164.083068 
L 383.877818 142.249814 
L 384.689455 132.941706 
L 385.501091 141.484922 
L 386.312727 165.398623 
L 387.124364 186.026945 
L 387.936 195.487907 
L 388.747636 189.511818 
L 389.559273 185.105045 
L 390.370909 174.189067 
L 391.182545 182.985 
L 391.994182 182.516392 
L 392.805818 178.421687 
L 393.617455 171.963388 
L 394.429091 167.095544 
L 395.240727 176.286186 
L 396.052364 161.384204 
L 396.864 176.87831 
L 397.675636 181.805152 
L 398.487273 172.593153 
L 398.487273 172.593153 
" clip-path="url(#pfe08b45137)" style="fill: none; stroke: #0000ff; stroke-width: 1.5; stroke-linecap: square"/>
   </g>
   <g id="patch_3">
    <path d="M 57.6 307.584 
L 57.6 41.472 
" style="fill: none; stroke: #000000; stroke-width: 0.8; stroke-linejoin: miter; stroke-linecap: square"/>
   </g>
   <g id="patch_4">
    <path d="M 414.72 307.584 
L 414.72 41.472 
" style="fill: none; stroke: #000000; stroke-width: 0.8; stroke-linejoin: miter; stroke-linecap: square"/>
   </g>
   <g id="patch_5">
    <path d="M 57.6 307.584 
L 414.72 307.584 
" style="fill: none; stroke: #000000; stroke-width: 0.8; stroke-linejoin: miter; stroke-linecap: square"/>
   </g>
   <g id="patch_6">
    <path d="M 57.6 41.472 
L 414.72 41.472 
" style="fill: none; stroke: #000000; stroke-width: 0.8; stroke-linejoin: miter; stroke-linecap: square"/>
   </g>
   <g id="legend_1">
    <g id="patch_7">
     <path d="M 275.993438 78.82825 
L 407.72 78.82825 
Q 409.72 78.82825 409.72 76.82825 
L 409.72 48.472 
Q 409.72 46.472 407.72 46.472 
L 275.993438 46.472 
Q 273.993438 46.472 273.993438 48.472 
L 273.993438 76.82825 
Q 273.993438 78.82825 275.993438 78.82825 
z
" style="fill: #ffffff; opacity: 0.8; stroke: #cccccc; stroke-linejoin: miter"/>
    </g>
    <g id="line2d_19">
     <path d="M 277.993438 54.570437 
L 287.993438 54.570437 
L 297.993438 54.570437 
" style="fill: none; stroke: #ffa500; stroke-width: 1.5; stroke-linecap: square"/>
    </g>
    <g id="text_19">
     <!-- Anchored X accel -->
     <g transform="translate(305.993438 58.070437) scale(0.1 -0.1)">
      <defs>
       <path id="DejaVuSans-68" d="M 3513 2113 
L 3513 0 
L 2938 0 
L 2938 2094 
Q 2938 2591 2744 2837 
Q 2550 3084 2163 3084 
Q 1697 3084 1428 2787 
Q 1159 2491 1159 1978 
L 1159 0 
L 581 0 
L 581 4863 
L 1159 4863 
L 1159 2956 
Q 1366 3272 1645 3428 
Q 1925 3584 2291 3584 
Q 2894 3584 3203 3211 
Q 3513 2838 3513 2113 
z
" transform="scale(0.015625)"/>
       <path id="DejaVuSans-64" d="M 2906 2969 
L 2906 4863 
L 3481 4863 
L 3481 0 
L 2906 0 
L 2906 525 
Q 2725 213 2448 61 
Q 2172 -91 1784 -91 
Q 1150 -91 751 415 
Q 353 922 353 1747 
Q 353 2572 751 3078 
Q 1150 3584 1784 3584 
Q 2172 3584 2448 3432 
Q 2725 3281 2906 2969 
z
M 947 1747 
Q 947 1113 1208 752 
Q 1469 391 1925 391 
Q 2381 391 2643 752 
Q 2906 1113 2906 1747 
Q 2906 2381 2643 2742 
Q 2381 3103 1925 3103 
Q 1469 3103 1208 2742 
Q 947 2381 947 1747 
z
" transform="scale(0.015625)"/>
      </defs>
      <use xlink:href="#DejaVuSans-41"/>
      <use xlink:href="#DejaVuSans-6e" x="68.408203"/>
      <use xlink:href="#DejaVuSans-63" x="131.787109"/>
      <use xlink:href="#DejaVuSans-68" x="186.767578"/>
      <use xlink:href="#DejaVuSans-6f" x="250.146484"/>
      <use xlink:href="#DejaVuSans-72" x="311.328125"/>
      <use xlink:href="#DejaVuSans-65" x="350.191406"/>
      <use xlink:href="#DejaVuSans-64" x="411.714844"/>
      <use xlink:href="#DejaVuSans-20" x="475.191406"/>
      <use xlink:href="#DejaVuSans-58" x="506.978516"/>
      <use xlink:href="#DejaVuSans-20" x="575.484375"/>
      <use xlink:href="#DejaVuSans-61" x="607.271484"/>
      <use xlink:href="#DejaVuSans-63" x="668.550781"/>
      <use xlink:href="#DejaVuSans-63" x="723.53125"/>
      <use xlink:href="#DejaVuSans-65" x="778.511719"/>
      <use xlink:href="#DejaVuSans-6c" x="840.035156"/>
     </g>
    </g>
    <g id="line2d_20">
     <path d="M 277.993438 69.248562 
L 287.993438 69.248562 
L 297.993438 69.248562 
" style="fill: none; stroke: #0000ff; stroke-width: 1.5; stroke-linecap: square"/>
    </g>
    <g id="text_20">
     <!-- Unanchored X accel -->
     <g transform="translate(305.993438 72.748562) scale(0.1 -0.1)">
      <defs>
       <path id="DejaVuSans-55" d="M 556 4666 
L 1191 4666 
L 1191 1831 
Q 1191 1081 1462 751 
Q 1734 422 2344 422 
Q 2950 422 3222 751 
Q 3494 1081 3494 1831 
L 3494 4666 
L 4128 4666 
L 4128 1753 
Q 4128 841 3676 375 
Q 3225 -91 2344 -91 
Q 1459 -91 1007 375 
Q 556 841 556 1753 
L 556 4666 
z
" transform="scale(0.015625)"/>
      </defs>
      <use xlink:href="#DejaVuSans-55"/>
      <use xlink:href="#DejaVuSans-6e" x="73.193359"/>
      <use xlink:href="#DejaVuSans-61" x="136.572266"/>
      <use xlink:href="#DejaVuSans-6e" x="197.851562"/>
      <use xlink:href="#DejaVuSans-63" x="261.230469"/>
      <use xlink:href="#DejaVuSans-68" x="316.210938"/>
      <use xlink:href="#DejaVuSans-6f" x="379.589844"/>
      <use xlink:href="#DejaVuSans-72" x="440.771484"/>
      <use xlink:href="#DejaVuSans-65" x="479.634766"/>
      <use xlink:href="#DejaVuSans-64" x="541.158203"/>
      <use xlink:href="#DejaVuSans-20" x="604.634766"/>
      <use xlink:href="#DejaVuSans-58" x="636.421875"/>
      <use xlink:href="#DejaVuSans-20" x="704.927734"/>
      <use xlink:href="#DejaVuSans-61" x="736.714844"/>
      <use xlink:href="#DejaVuSans-63" x="797.994141"/>
      <use xlink:href="#DejaVuSans-63" x="852.974609"/>
      <use xlink:href="#DejaVuSans-65" x="907.955078"/>
      <use xlink:href="#DejaVuSans-6c" x="969.478516"/>
     </g>
    </g>
   </g>
  </g>
 </g>
 <defs>
  <clipPath id="pfe08b45137">
   <rect x="57.6" y="41.472" width="357.12" height="266.112"/>
  </clipPath>
 </defs>
</svg>
