<?xml version="1.0" encoding="utf-8" standalone="no"?>
<!DOCTYPE svg PUBLIC "-//W3C//DTD SVG 1.1//EN"
  "http://www.w3.org/Graphics/SVG/1.1/DTD/svg11.dtd">
<svg xmlns:xlink="http://www.w3.org/1999/xlink" width="460.8pt" height="345.6pt" viewBox="0 0 460.8 345.6" xmlns="http://www.w3.org/2000/svg" version="1.1">
 <metadata>
  <rdf:RDF xmlns:dc="http://purl.org/dc/elements/1.1/" xmlns:cc="http://creativecommons.org/ns#" xmlns:rdf="http://www.w3.org/1999/02/22-rdf-syntax-ns#">
   <cc:Work>
    <dc:type rdf:resource="http://purl.org/dc/dcmitype/StillImage"/>
    <dc:date>2024-03-11T16:15:38.117649</dc:date>
    <dc:format>image/svg+xml</dc:format>
    <dc:creator>
     <cc:Agent>
      <dc:title>Matplotlib v3.7.3, https://matplotlib.org/</dc:title>
     </cc:Agent>
    </dc:creator>
   </cc:Work>
  </rdf:RDF>
 </metadata>
 <defs>
  <style type="text/css">*{stroke-linejoin: round; stroke-linecap: butt}</style>
 </defs>
 <g id="figure_1">
  <g id="patch_1">
   <path d="M 0 345.6 
L 460.8 345.6 
L 460.8 0 
L 0 0 
z
" style="fill: #ffffff"/>
  </g>
  <g id="axes_1">
   <g id="patch_2">
    <path d="M 57.6 307.584 
L 414.72 307.584 
L 414.72 41.472 
L 57.6 41.472 
z
" style="fill: #ffffff"/>
   </g>
   <g id="patch_3">
    <path d="M 75.456 230.60397 
L 218.304 230.60397 
L 218.304 193.441197 
L 75.456 193.441197 
L 75.456 230.60397 
z
" clip-path="url(#p260842c373)" style="fill: #3274a1; stroke: #3f3f3f; stroke-width: 1.5; stroke-linejoin: miter"/>
   </g>
   <g id="patch_4">
    <path d="M 254.016 239.894663 
L 396.864 239.894663 
L 396.864 200.741027 
L 254.016 200.741027 
L 254.016 239.894663 
z
" clip-path="url(#p260842c373)" style="fill: #e1812c; stroke: #3f3f3f; stroke-width: 1.5; stroke-linejoin: miter"/>
   </g>
   <g id="matplotlib.axis_1">
    <g id="xtick_1">
     <g id="line2d_1">
      <defs>
       <path id="m0769d82e8a" d="M 0 0 
L 0 3.5 
" style="stroke: #000000; stroke-width: 0.8"/>
      </defs>
      <g>
       <use xlink:href="#m0769d82e8a" x="146.88" y="307.584" style="stroke: #000000; stroke-width: 0.8"/>
      </g>
     </g>
     <g id="text_1">
      <!-- Unanchored -->
      <g transform="translate(116.647969 322.182437) scale(0.1 -0.1)">
       <defs>
        <path id="DejaVuSans-55" d="M 556 4666 
L 1191 4666 
L 1191 1831 
Q 1191 1081 1462 751 
Q 1734 422 2344 422 
Q 2950 422 3222 751 
Q 3494 1081 3494 1831 
L 3494 4666 
L 4128 4666 
L 4128 1753 
Q 4128 841 3676 375 
Q 3225 -91 2344 -91 
Q 1459 -91 1007 375 
Q 556 841 556 1753 
L 556 4666 
z
" transform="scale(0.015625)"/>
        <path id="DejaVuSans-6e" d="M 3513 2113 
L 3513 0 
L 2938 0 
L 2938 2094 
Q 2938 2591 2744 2837 
Q 2550 3084 2163 3084 
Q 1697 3084 1428 2787 
Q 1159 2491 1159 1978 
L 1159 0 
L 581 0 
L 581 3500 
L 1159 3500 
L 1159 2956 
Q 1366 3272 1645 3428 
Q 1925 3584 2291 3584 
Q 2894 3584 3203 3211 
Q 3513 2838 3513 2113 
z
" transform="scale(0.015625)"/>
        <path id="DejaVuSans-61" d="M 2194 1759 
Q 1497 1759 1228 1600 
Q 959 1441 959 1056 
Q 959 750 1161 570 
Q 1363 391 1709 391 
Q 2188 391 2477 730 
Q 2766 1069 2766 1631 
L 2766 1759 
L 2194 1759 
z
M 3341 1997 
L 3341 0 
L 2766 0 
L 2766 531 
Q 2569 213 2275 61 
Q 1981 -91 1556 -91 
Q 1019 -91 701 211 
Q 384 513 384 1019 
Q 384 1609 779 1909 
Q 1175 2209 1959 2209 
L 2766 2209 
L 2766 2266 
Q 2766 2663 2505 2880 
Q 2244 3097 1772 3097 
Q 1472 3097 1187 3025 
Q 903 2953 641 2809 
L 641 3341 
Q 956 3463 1253 3523 
Q 1550 3584 1831 3584 
Q 2591 3584 2966 3190 
Q 3341 2797 3341 1997 
z
" transform="scale(0.015625)"/>
        <path id="DejaVuSans-63" d="M 3122 3366 
L 3122 2828 
Q 2878 2963 2633 3030 
Q 2388 3097 2138 3097 
Q 1578 3097 1268 2742 
Q 959 2388 959 1747 
Q 959 1106 1268 751 
Q 1578 397 2138 397 
Q 2388 397 2633 464 
Q 2878 531 3122 666 
L 3122 134 
Q 2881 22 2623 -34 
Q 2366 -91 2075 -91 
Q 1284 -91 818 406 
Q 353 903 353 1747 
Q 353 2603 823 3093 
Q 1294 3584 2113 3584 
Q 2378 3584 2631 3529 
Q 2884 3475 3122 3366 
z
" transform="scale(0.015625)"/>
        <path id="DejaVuSans-68" d="M 3513 2113 
L 3513 0 
L 2938 0 
L 2938 2094 
Q 2938 2591 2744 2837 
Q 2550 3084 2163 3084 
Q 1697 3084 1428 2787 
Q 1159 2491 1159 1978 
L 1159 0 
L 581 0 
L 581 4863 
L 1159 4863 
L 1159 2956 
Q 1366 3272 1645 3428 
Q 1925 3584 2291 3584 
Q 2894 3584 3203 3211 
Q 3513 2838 3513 2113 
z
" transform="scale(0.015625)"/>
        <path id="DejaVuSans-6f" d="M 1959 3097 
Q 1497 3097 1228 2736 
Q 959 2375 959 1747 
Q 959 1119 1226 758 
Q 1494 397 1959 397 
Q 2419 397 2687 759 
Q 2956 1122 2956 1747 
Q 2956 2369 2687 2733 
Q 2419 3097 1959 3097 
z
M 1959 3584 
Q 2709 3584 3137 3096 
Q 3566 2609 3566 1747 
Q 3566 888 3137 398 
Q 2709 -91 1959 -91 
Q 1206 -91 779 398 
Q 353 888 353 1747 
Q 353 2609 779 3096 
Q 1206 3584 1959 3584 
z
" transform="scale(0.015625)"/>
        <path id="DejaVuSans-72" d="M 2631 2963 
Q 2534 3019 2420 3045 
Q 2306 3072 2169 3072 
Q 1681 3072 1420 2755 
Q 1159 2438 1159 1844 
L 1159 0 
L 581 0 
L 581 3500 
L 1159 3500 
L 1159 2956 
Q 1341 3275 1631 3429 
Q 1922 3584 2338 3584 
Q 2397 3584 2469 3576 
Q 2541 3569 2628 3553 
L 2631 2963 
z
" transform="scale(0.015625)"/>
        <path id="DejaVuSans-65" d="M 3597 1894 
L 3597 1613 
L 953 1613 
Q 991 1019 1311 708 
Q 1631 397 2203 397 
Q 2534 397 2845 478 
Q 3156 559 3463 722 
L 3463 178 
Q 3153 47 2828 -22 
Q 2503 -91 2169 -91 
Q 1331 -91 842 396 
Q 353 884 353 1716 
Q 353 2575 817 3079 
Q 1281 3584 2069 3584 
Q 2775 3584 3186 3129 
Q 3597 2675 3597 1894 
z
M 3022 2063 
Q 3016 2534 2758 2815 
Q 2500 3097 2075 3097 
Q 1594 3097 1305 2825 
Q 1016 2553 972 2059 
L 3022 2063 
z
" transform="scale(0.015625)"/>
        <path id="DejaVuSans-64" d="M 2906 2969 
L 2906 4863 
L 3481 4863 
L 3481 0 
L 2906 0 
L 2906 525 
Q 2725 213 2448 61 
Q 2172 -91 1784 -91 
Q 1150 -91 751 415 
Q 353 922 353 1747 
Q 353 2572 751 3078 
Q 1150 3584 1784 3584 
Q 2172 3584 2448 3432 
Q 2725 3281 2906 2969 
z
M 947 1747 
Q 947 1113 1208 752 
Q 1469 391 1925 391 
Q 2381 391 2643 752 
Q 2906 1113 2906 1747 
Q 2906 2381 2643 2742 
Q 2381 3103 1925 3103 
Q 1469 3103 1208 2742 
Q 947 2381 947 1747 
z
" transform="scale(0.015625)"/>
       </defs>
       <use xlink:href="#DejaVuSans-55"/>
       <use xlink:href="#DejaVuSans-6e" x="73.193359"/>
       <use xlink:href="#DejaVuSans-61" x="136.572266"/>
       <use xlink:href="#DejaVuSans-6e" x="197.851562"/>
       <use xlink:href="#DejaVuSans-63" x="261.230469"/>
       <use xlink:href="#DejaVuSans-68" x="316.210938"/>
       <use xlink:href="#DejaVuSans-6f" x="379.589844"/>
       <use xlink:href="#DejaVuSans-72" x="440.771484"/>
       <use xlink:href="#DejaVuSans-65" x="479.634766"/>
       <use xlink:href="#DejaVuSans-64" x="541.158203"/>
      </g>
     </g>
    </g>
    <g id="xtick_2">
     <g id="line2d_2">
      <g>
       <use xlink:href="#m0769d82e8a" x="325.44" y="307.584" style="stroke: #000000; stroke-width: 0.8"/>
      </g>
     </g>
     <g id="text_2">
      <!-- Anchored -->
      <g transform="translate(301.679844 322.182437) scale(0.1 -0.1)">
       <defs>
        <path id="DejaVuSans-41" d="M 2188 4044 
L 1331 1722 
L 3047 1722 
L 2188 4044 
z
M 1831 4666 
L 2547 4666 
L 4325 0 
L 3669 0 
L 3244 1197 
L 1141 1197 
L 716 0 
L 50 0 
L 1831 4666 
z
" transform="scale(0.015625)"/>
       </defs>
       <use xlink:href="#DejaVuSans-41"/>
       <use xlink:href="#DejaVuSans-6e" x="68.408203"/>
       <use xlink:href="#DejaVuSans-63" x="131.787109"/>
       <use xlink:href="#DejaVuSans-68" x="186.767578"/>
       <use xlink:href="#DejaVuSans-6f" x="250.146484"/>
       <use xlink:href="#DejaVuSans-72" x="311.328125"/>
       <use xlink:href="#DejaVuSans-65" x="350.191406"/>
       <use xlink:href="#DejaVuSans-64" x="411.714844"/>
      </g>
     </g>
    </g>
    <g id="text_3">
     <!-- Device -->
     <g transform="translate(219.059219 335.860562) scale(0.1 -0.1)">
      <defs>
       <path id="DejaVuSans-44" d="M 1259 4147 
L 1259 519 
L 2022 519 
Q 2988 519 3436 956 
Q 3884 1394 3884 2338 
Q 3884 3275 3436 3711 
Q 2988 4147 2022 4147 
L 1259 4147 
z
M 628 4666 
L 1925 4666 
Q 3281 4666 3915 4102 
Q 4550 3538 4550 2338 
Q 4550 1131 3912 565 
Q 3275 0 1925 0 
L 628 0 
L 628 4666 
z
" transform="scale(0.015625)"/>
       <path id="DejaVuSans-76" d="M 191 3500 
L 800 3500 
L 1894 563 
L 2988 3500 
L 3597 3500 
L 2284 0 
L 1503 0 
L 191 3500 
z
" transform="scale(0.015625)"/>
       <path id="DejaVuSans-69" d="M 603 3500 
L 1178 3500 
L 1178 0 
L 603 0 
L 603 3500 
z
M 603 4863 
L 1178 4863 
L 1178 4134 
L 603 4134 
L 603 4863 
z
" transform="scale(0.015625)"/>
      </defs>
      <use xlink:href="#DejaVuSans-44"/>
      <use xlink:href="#DejaVuSans-65" x="77.001953"/>
      <use xlink:href="#DejaVuSans-76" x="138.525391"/>
      <use xlink:href="#DejaVuSans-69" x="197.705078"/>
      <use xlink:href="#DejaVuSans-63" x="225.488281"/>
      <use xlink:href="#DejaVuSans-65" x="280.46875"/>
     </g>
    </g>
   </g>
   <g id="matplotlib.axis_2">
    <g id="ytick_1">
     <g id="line2d_3">
      <defs>
       <path id="md8c9cecec8" d="M 0 0 
L -3.5 0 
" style="stroke: #000000; stroke-width: 0.8"/>
      </defs>
      <g>
       <use xlink:href="#md8c9cecec8" x="57.6" y="307.584" style="stroke: #000000; stroke-width: 0.8"/>
      </g>
     </g>
     <g id="text_4">
      <!-- 0 -->
      <g transform="translate(44.2375 311.383219) scale(0.1 -0.1)">
       <defs>
        <path id="DejaVuSans-30" d="M 2034 4250 
Q 1547 4250 1301 3770 
Q 1056 3291 1056 2328 
Q 1056 1369 1301 889 
Q 1547 409 2034 409 
Q 2525 409 2770 889 
Q 3016 1369 3016 2328 
Q 3016 3291 2770 3770 
Q 2525 4250 2034 4250 
z
M 2034 4750 
Q 2819 4750 3233 4129 
Q 3647 3509 3647 2328 
Q 3647 1150 3233 529 
Q 2819 -91 2034 -91 
Q 1250 -91 836 529 
Q 422 1150 422 2328 
Q 422 3509 836 4129 
Q 1250 4750 2034 4750 
z
" transform="scale(0.015625)"/>
       </defs>
       <use xlink:href="#DejaVuSans-30"/>
      </g>
     </g>
    </g>
    <g id="ytick_2">
     <g id="line2d_4">
      <g>
       <use xlink:href="#md8c9cecec8" x="57.6" y="254.3616" style="stroke: #000000; stroke-width: 0.8"/>
      </g>
     </g>
     <g id="text_5">
      <!-- 5 -->
      <g transform="translate(44.2375 258.160819) scale(0.1 -0.1)">
       <defs>
        <path id="DejaVuSans-35" d="M 691 4666 
L 3169 4666 
L 3169 4134 
L 1269 4134 
L 1269 2991 
Q 1406 3038 1543 3061 
Q 1681 3084 1819 3084 
Q 2600 3084 3056 2656 
Q 3513 2228 3513 1497 
Q 3513 744 3044 326 
Q 2575 -91 1722 -91 
Q 1428 -91 1123 -41 
Q 819 9 494 109 
L 494 744 
Q 775 591 1075 516 
Q 1375 441 1709 441 
Q 2250 441 2565 725 
Q 2881 1009 2881 1497 
Q 2881 1984 2565 2268 
Q 2250 2553 1709 2553 
Q 1456 2553 1204 2497 
Q 953 2441 691 2322 
L 691 4666 
z
" transform="scale(0.015625)"/>
       </defs>
       <use xlink:href="#DejaVuSans-35"/>
      </g>
     </g>
    </g>
    <g id="ytick_3">
     <g id="line2d_5">
      <g>
       <use xlink:href="#md8c9cecec8" x="57.6" y="201.1392" style="stroke: #000000; stroke-width: 0.8"/>
      </g>
     </g>
     <g id="text_6">
      <!-- 10 -->
      <g transform="translate(37.875 204.938419) scale(0.1 -0.1)">
       <defs>
        <path id="DejaVuSans-31" d="M 794 531 
L 1825 531 
L 1825 4091 
L 703 3866 
L 703 4441 
L 1819 4666 
L 2450 4666 
L 2450 531 
L 3481 531 
L 3481 0 
L 794 0 
L 794 531 
z
" transform="scale(0.015625)"/>
       </defs>
       <use xlink:href="#DejaVuSans-31"/>
       <use xlink:href="#DejaVuSans-30" x="63.623047"/>
      </g>
     </g>
    </g>
    <g id="ytick_4">
     <g id="line2d_6">
      <g>
       <use xlink:href="#md8c9cecec8" x="57.6" y="147.9168" style="stroke: #000000; stroke-width: 0.8"/>
      </g>
     </g>
     <g id="text_7">
      <!-- 15 -->
      <g transform="translate(37.875 151.716019) scale(0.1 -0.1)">
       <use xlink:href="#DejaVuSans-31"/>
       <use xlink:href="#DejaVuSans-35" x="63.623047"/>
      </g>
     </g>
    </g>
    <g id="ytick_5">
     <g id="line2d_7">
      <g>
       <use xlink:href="#md8c9cecec8" x="57.6" y="94.6944" style="stroke: #000000; stroke-width: 0.8"/>
      </g>
     </g>
     <g id="text_8">
      <!-- 20 -->
      <g transform="translate(37.875 98.493619) scale(0.1 -0.1)">
       <defs>
        <path id="DejaVuSans-32" d="M 1228 531 
L 3431 531 
L 3431 0 
L 469 0 
L 469 531 
Q 828 903 1448 1529 
Q 2069 2156 2228 2338 
Q 2531 2678 2651 2914 
Q 2772 3150 2772 3378 
Q 2772 3750 2511 3984 
Q 2250 4219 1831 4219 
Q 1534 4219 1204 4116 
Q 875 4013 500 3803 
L 500 4441 
Q 881 4594 1212 4672 
Q 1544 4750 1819 4750 
Q 2544 4750 2975 4387 
Q 3406 4025 3406 3419 
Q 3406 3131 3298 2873 
Q 3191 2616 2906 2266 
Q 2828 2175 2409 1742 
Q 1991 1309 1228 531 
z
" transform="scale(0.015625)"/>
       </defs>
       <use xlink:href="#DejaVuSans-32"/>
       <use xlink:href="#DejaVuSans-30" x="63.623047"/>
      </g>
     </g>
    </g>
    <g id="ytick_6">
     <g id="line2d_8">
      <g>
       <use xlink:href="#md8c9cecec8" x="57.6" y="41.472" style="stroke: #000000; stroke-width: 0.8"/>
      </g>
     </g>
     <g id="text_9">
      <!-- 25 -->
      <g transform="translate(37.875 45.271219) scale(0.1 -0.1)">
       <use xlink:href="#DejaVuSans-32"/>
       <use xlink:href="#DejaVuSans-35" x="63.623047"/>
      </g>
     </g>
    </g>
    <g id="text_10">
     <!-- peak_freq -->
     <g transform="translate(31.517187 199.192062) rotate(-90) scale(0.1 -0.1)">
      <defs>
       <path id="DejaVuSans-70" d="M 1159 525 
L 1159 -1331 
L 581 -1331 
L 581 3500 
L 1159 3500 
L 1159 2969 
Q 1341 3281 1617 3432 
Q 1894 3584 2278 3584 
Q 2916 3584 3314 3078 
Q 3713 2572 3713 1747 
Q 3713 922 3314 415 
Q 2916 -91 2278 -91 
Q 1894 -91 1617 61 
Q 1341 213 1159 525 
z
M 3116 1747 
Q 3116 2381 2855 2742 
Q 2594 3103 2138 3103 
Q 1681 3103 1420 2742 
Q 1159 2381 1159 1747 
Q 1159 1113 1420 752 
Q 1681 391 2138 391 
Q 2594 391 2855 752 
Q 3116 1113 3116 1747 
z
" transform="scale(0.015625)"/>
       <path id="DejaVuSans-6b" d="M 581 4863 
L 1159 4863 
L 1159 1991 
L 2875 3500 
L 3609 3500 
L 1753 1863 
L 3688 0 
L 2938 0 
L 1159 1709 
L 1159 0 
L 581 0 
L 581 4863 
z
" transform="scale(0.015625)"/>
       <path id="DejaVuSans-5f" d="M 3263 -1063 
L 3263 -1509 
L -63 -1509 
L -63 -1063 
L 3263 -1063 
z
" transform="scale(0.015625)"/>
       <path id="DejaVuSans-66" d="M 2375 4863 
L 2375 4384 
L 1825 4384 
Q 1516 4384 1395 4259 
Q 1275 4134 1275 3809 
L 1275 3500 
L 2222 3500 
L 2222 3053 
L 1275 3053 
L 1275 0 
L 697 0 
L 697 3053 
L 147 3053 
L 147 3500 
L 697 3500 
L 697 3744 
Q 697 4328 969 4595 
Q 1241 4863 1831 4863 
L 2375 4863 
z
" transform="scale(0.015625)"/>
       <path id="DejaVuSans-71" d="M 947 1747 
Q 947 1113 1208 752 
Q 1469 391 1925 391 
Q 2381 391 2643 752 
Q 2906 1113 2906 1747 
Q 2906 2381 2643 2742 
Q 2381 3103 1925 3103 
Q 1469 3103 1208 2742 
Q 947 2381 947 1747 
z
M 2906 525 
Q 2725 213 2448 61 
Q 2172 -91 1784 -91 
Q 1150 -91 751 415 
Q 353 922 353 1747 
Q 353 2572 751 3078 
Q 1150 3584 1784 3584 
Q 2172 3584 2448 3432 
Q 2725 3281 2906 2969 
L 2906 3500 
L 3481 3500 
L 3481 -1331 
L 2906 -1331 
L 2906 525 
z
" transform="scale(0.015625)"/>
      </defs>
      <use xlink:href="#DejaVuSans-70"/>
      <use xlink:href="#DejaVuSans-65" x="63.476562"/>
      <use xlink:href="#DejaVuSans-61" x="125"/>
      <use xlink:href="#DejaVuSans-6b" x="186.279297"/>
      <use xlink:href="#DejaVuSans-5f" x="244.189453"/>
      <use xlink:href="#DejaVuSans-66" x="294.189453"/>
      <use xlink:href="#DejaVuSans-72" x="329.394531"/>
      <use xlink:href="#DejaVuSans-65" x="368.257812"/>
      <use xlink:href="#DejaVuSans-71" x="429.78125"/>
     </g>
    </g>
   </g>
   <g id="line2d_9">
    <path d="M 146.88 230.60397 
L 146.88 262.457776 
" clip-path="url(#p260842c373)" style="fill: none; stroke: #3f3f3f; stroke-width: 1.5; stroke-linecap: square"/>
   </g>
   <g id="line2d_10">
    <path d="M 146.88 193.441197 
L 146.88 174.85981 
" clip-path="url(#p260842c373)" style="fill: none; stroke: #3f3f3f; stroke-width: 1.5; stroke-linecap: square"/>
   </g>
   <g id="line2d_11">
    <path d="M 111.168 262.457776 
L 182.592 262.457776 
" clip-path="url(#p260842c373)" style="fill: none; stroke: #3f3f3f; stroke-width: 1.5; stroke-linecap: square"/>
   </g>
   <g id="line2d_12">
    <path d="M 111.168 174.85981 
L 182.592 174.85981 
" clip-path="url(#p260842c373)" style="fill: none; stroke: #3f3f3f; stroke-width: 1.5; stroke-linecap: square"/>
   </g>
   <g id="line2d_13">
    <defs>
     <path id="m4fdc3992db" d="M -0 3.535534 
L 2.12132 0 
L -0 -3.535534 
L -2.12132 -0 
z
" style="stroke: #3f3f3f; stroke-linejoin: miter"/>
    </defs>
    <g clip-path="url(#p260842c373)">
     <use xlink:href="#m4fdc3992db" x="146.88" y="304.929516" style="fill: #3f3f3f; stroke: #3f3f3f; stroke-linejoin: miter"/>
     <use xlink:href="#m4fdc3992db" x="146.88" y="294.311581" style="fill: #3f3f3f; stroke: #3f3f3f; stroke-linejoin: miter"/>
     <use xlink:href="#m4fdc3992db" x="146.88" y="304.929516" style="fill: #3f3f3f; stroke: #3f3f3f; stroke-linejoin: miter"/>
     <use xlink:href="#m4fdc3992db" x="146.88" y="92.570813" style="fill: #3f3f3f; stroke: #3f3f3f; stroke-linejoin: miter"/>
    </g>
   </g>
   <g id="line2d_14">
    <path d="M 325.44 239.894663 
L 325.44 259.803292 
" clip-path="url(#p260842c373)" style="fill: none; stroke: #3f3f3f; stroke-width: 1.5; stroke-linecap: square"/>
   </g>
   <g id="line2d_15">
    <path d="M 325.44 200.741027 
L 325.44 143.006005 
" clip-path="url(#p260842c373)" style="fill: none; stroke: #3f3f3f; stroke-width: 1.5; stroke-linecap: square"/>
   </g>
   <g id="line2d_16">
    <path d="M 289.728 259.803292 
L 361.152 259.803292 
" clip-path="url(#p260842c373)" style="fill: none; stroke: #3f3f3f; stroke-width: 1.5; stroke-linecap: square"/>
   </g>
   <g id="line2d_17">
    <path d="M 289.728 143.006005 
L 361.152 143.006005 
" clip-path="url(#p260842c373)" style="fill: none; stroke: #3f3f3f; stroke-width: 1.5; stroke-linecap: square"/>
   </g>
   <g id="line2d_18">
    <g clip-path="url(#p260842c373)">
     <use xlink:href="#m4fdc3992db" x="325.44" y="304.929516" style="fill: #3f3f3f; stroke: #3f3f3f; stroke-linejoin: miter"/>
     <use xlink:href="#m4fdc3992db" x="325.44" y="304.929516" style="fill: #3f3f3f; stroke: #3f3f3f; stroke-linejoin: miter"/>
     <use xlink:href="#m4fdc3992db" x="325.44" y="304.929516" style="fill: #3f3f3f; stroke: #3f3f3f; stroke-linejoin: miter"/>
     <use xlink:href="#m4fdc3992db" x="325.44" y="304.929516" style="fill: #3f3f3f; stroke: #3f3f3f; stroke-linejoin: miter"/>
     <use xlink:href="#m4fdc3992db" x="325.44" y="304.929516" style="fill: #3f3f3f; stroke: #3f3f3f; stroke-linejoin: miter"/>
     <use xlink:href="#m4fdc3992db" x="325.44" y="304.929516" style="fill: #3f3f3f; stroke: #3f3f3f; stroke-linejoin: miter"/>
     <use xlink:href="#m4fdc3992db" x="325.44" y="97.879781" style="fill: #3f3f3f; stroke: #3f3f3f; stroke-linejoin: miter"/>
    </g>
   </g>
   <g id="line2d_19">
    <path d="M 75.456 212.022584 
L 218.304 212.022584 
" clip-path="url(#p260842c373)" style="fill: none; stroke: #3f3f3f; stroke-width: 1.5; stroke-linecap: square"/>
   </g>
   <g id="line2d_20">
    <path d="M 254.016 217.331551 
L 396.864 217.331551 
" clip-path="url(#p260842c373)" style="fill: none; stroke: #3f3f3f; stroke-width: 1.5; stroke-linecap: square"/>
   </g>
   <g id="patch_5">
    <path d="M 57.6 307.584 
L 57.6 41.472 
" style="fill: none; stroke: #000000; stroke-width: 0.8; stroke-linejoin: miter; stroke-linecap: square"/>
   </g>
   <g id="patch_6">
    <path d="M 414.72 307.584 
L 414.72 41.472 
" style="fill: none; stroke: #000000; stroke-width: 0.8; stroke-linejoin: miter; stroke-linecap: square"/>
   </g>
   <g id="patch_7">
    <path d="M 57.6 307.584 
L 414.72 307.584 
" style="fill: none; stroke: #000000; stroke-width: 0.8; stroke-linejoin: miter; stroke-linecap: square"/>
   </g>
   <g id="patch_8">
    <path d="M 57.6 41.472 
L 414.72 41.472 
" style="fill: none; stroke: #000000; stroke-width: 0.8; stroke-linejoin: miter; stroke-linecap: square"/>
   </g>
   <g id="PathCollection_1">
    <defs>
     <path id="mca640fd847" d="M 0 2.5 
C 0.663008 2.5 1.29895 2.236584 1.767767 1.767767 
C 2.236584 1.29895 2.5 0.663008 2.5 0 
C 2.5 -0.663008 2.236584 -1.29895 1.767767 -1.767767 
C 1.29895 -2.236584 0.663008 -2.5 0 -2.5 
C -0.663008 -2.5 -1.29895 -2.236584 -1.767767 -1.767767 
C -2.236584 -1.29895 -2.5 -0.663008 -2.5 0 
C -2.5 0.663008 -2.236584 1.29895 -1.767767 1.767767 
C -1.29895 2.236584 -0.663008 2.5 0 2.5 
z
" style="stroke: #000000; stroke-width: 2"/>
    </defs>
    <g clip-path="url(#p260842c373)">
     <use xlink:href="#mca640fd847" x="148.425497" y="198.750165" style="fill: #1f77b4; stroke: #000000; stroke-width: 2"/>
     <use xlink:href="#mca640fd847" x="132.072686" y="219.986035" style="fill: #1f77b4; stroke: #000000; stroke-width: 2"/>
     <use xlink:href="#mca640fd847" x="164.230291" y="185.477746" style="fill: #1f77b4; stroke: #000000; stroke-width: 2"/>
     <use xlink:href="#mca640fd847" x="130.575186" y="217.331551" style="fill: #1f77b4; stroke: #000000; stroke-width: 2"/>
     <use xlink:href="#mca640fd847" x="163.63258" y="204.059132" style="fill: #1f77b4; stroke: #000000; stroke-width: 2"/>
     <use xlink:href="#mca640fd847" x="147.320004" y="219.986035" style="fill: #1f77b4; stroke: #000000; stroke-width: 2"/>
     <use xlink:href="#mca640fd847" x="140.229527" y="193.441197" style="fill: #1f77b4; stroke: #000000; stroke-width: 2"/>
     <use xlink:href="#mca640fd847" x="160.364827" y="222.640519" style="fill: #1f77b4; stroke: #000000; stroke-width: 2"/>
     <use xlink:href="#mca640fd847" x="131.17333" y="217.331551" style="fill: #1f77b4; stroke: #000000; stroke-width: 2"/>
     <use xlink:href="#mca640fd847" x="136.817054" y="201.404648" style="fill: #1f77b4; stroke: #000000; stroke-width: 2"/>
     <use xlink:href="#mca640fd847" x="151.216396" y="92.570813" style="fill: #1f77b4; stroke: #000000; stroke-width: 2"/>
     <use xlink:href="#mca640fd847" x="148.512556" y="304.929516" style="fill: #1f77b4; stroke: #000000; stroke-width: 2"/>
     <use xlink:href="#mca640fd847" x="143.386805" y="233.258454" style="fill: #1f77b4; stroke: #000000; stroke-width: 2"/>
     <use xlink:href="#mca640fd847" x="147.169114" y="230.60397" style="fill: #1f77b4; stroke: #000000; stroke-width: 2"/>
     <use xlink:href="#mca640fd847" x="131.874481" y="254.494324" style="fill: #1f77b4; stroke: #000000; stroke-width: 2"/>
     <use xlink:href="#mca640fd847" x="134.980889" y="230.60397" style="fill: #1f77b4; stroke: #000000; stroke-width: 2"/>
     <use xlink:href="#mca640fd847" x="164.215304" y="233.258454" style="fill: #1f77b4; stroke: #000000; stroke-width: 2"/>
     <use xlink:href="#mca640fd847" x="139.299512" y="294.311581" style="fill: #1f77b4; stroke: #000000; stroke-width: 2"/>
     <use xlink:href="#mca640fd847" x="130.21284" y="304.929516" style="fill: #1f77b4; stroke: #000000; stroke-width: 2"/>
     <use xlink:href="#mca640fd847" x="152.708468" y="238.567421" style="fill: #1f77b4; stroke: #000000; stroke-width: 2"/>
     <use xlink:href="#mca640fd847" x="147.729229" y="206.713616" style="fill: #1f77b4; stroke: #000000; stroke-width: 2"/>
     <use xlink:href="#mca640fd847" x="131.465624" y="196.095681" style="fill: #1f77b4; stroke: #000000; stroke-width: 2"/>
     <use xlink:href="#mca640fd847" x="133.588178" y="212.022584" style="fill: #1f77b4; stroke: #000000; stroke-width: 2"/>
     <use xlink:href="#mca640fd847" x="148.656491" y="212.022584" style="fill: #1f77b4; stroke: #000000; stroke-width: 2"/>
     <use xlink:href="#mca640fd847" x="139.460874" y="212.022584" style="fill: #1f77b4; stroke: #000000; stroke-width: 2"/>
     <use xlink:href="#mca640fd847" x="142.348217" y="227.949486" style="fill: #1f77b4; stroke: #000000; stroke-width: 2"/>
     <use xlink:href="#mca640fd847" x="139.627945" y="206.713616" style="fill: #1f77b4; stroke: #000000; stroke-width: 2"/>
     <use xlink:href="#mca640fd847" x="157.319887" y="204.059132" style="fill: #1f77b4; stroke: #000000; stroke-width: 2"/>
     <use xlink:href="#mca640fd847" x="150.403698" y="198.750165" style="fill: #1f77b4; stroke: #000000; stroke-width: 2"/>
     <use xlink:href="#mca640fd847" x="137.777826" y="193.441197" style="fill: #1f77b4; stroke: #000000; stroke-width: 2"/>
     <use xlink:href="#mca640fd847" x="158.782651" y="190.786713" style="fill: #1f77b4; stroke: #000000; stroke-width: 2"/>
     <use xlink:href="#mca640fd847" x="131.910942" y="233.258454" style="fill: #1f77b4; stroke: #000000; stroke-width: 2"/>
     <use xlink:href="#mca640fd847" x="132.700223" y="214.677067" style="fill: #1f77b4; stroke: #000000; stroke-width: 2"/>
     <use xlink:href="#mca640fd847" x="140.825277" y="262.457776" style="fill: #1f77b4; stroke: #000000; stroke-width: 2"/>
     <use xlink:href="#mca640fd847" x="140.903998" y="174.85981" style="fill: #1f77b4; stroke: #000000; stroke-width: 2"/>
     <use xlink:href="#mca640fd847" x="129.571381" y="182.823262" style="fill: #1f77b4; stroke: #000000; stroke-width: 2"/>
     <use xlink:href="#mca640fd847" x="161.631944" y="174.85981" style="fill: #1f77b4; stroke: #000000; stroke-width: 2"/>
     <use xlink:href="#mca640fd847" x="146.623109" y="188.132229" style="fill: #1f77b4; stroke: #000000; stroke-width: 2"/>
     <use xlink:href="#mca640fd847" x="160.119923" y="177.514294" style="fill: #1f77b4; stroke: #000000; stroke-width: 2"/>
     <use xlink:href="#mca640fd847" x="133.140512" y="190.786713" style="fill: #1f77b4; stroke: #000000; stroke-width: 2"/>
    </g>
   </g>
   <g id="PathCollection_2">
    <g clip-path="url(#p260842c373)">
     <use xlink:href="#mca640fd847" x="334.177036" y="217.331551" style="fill: #1f77b4; stroke: #000000; stroke-width: 2"/>
     <use xlink:href="#mca640fd847" x="326.792258" y="196.095681" style="fill: #1f77b4; stroke: #000000; stroke-width: 2"/>
     <use xlink:href="#mca640fd847" x="335.616266" y="238.567421" style="fill: #1f77b4; stroke: #000000; stroke-width: 2"/>
     <use xlink:href="#mca640fd847" x="322.130625" y="217.331551" style="fill: #1f77b4; stroke: #000000; stroke-width: 2"/>
     <use xlink:href="#mca640fd847" x="323.342559" y="209.3681" style="fill: #1f77b4; stroke: #000000; stroke-width: 2"/>
     <use xlink:href="#mca640fd847" x="333.539406" y="217.331551" style="fill: #1f77b4; stroke: #000000; stroke-width: 2"/>
     <use xlink:href="#mca640fd847" x="320.71733" y="217.331551" style="fill: #1f77b4; stroke: #000000; stroke-width: 2"/>
     <use xlink:href="#mca640fd847" x="312.545166" y="219.986035" style="fill: #1f77b4; stroke: #000000; stroke-width: 2"/>
     <use xlink:href="#mca640fd847" x="325.002127" y="238.567421" style="fill: #1f77b4; stroke: #000000; stroke-width: 2"/>
     <use xlink:href="#mca640fd847" x="324.18862" y="230.60397" style="fill: #1f77b4; stroke: #000000; stroke-width: 2"/>
     <use xlink:href="#mca640fd847" x="314.462547" y="188.132229" style="fill: #1f77b4; stroke: #000000; stroke-width: 2"/>
     <use xlink:href="#mca640fd847" x="323.459389" y="227.949486" style="fill: #1f77b4; stroke: #000000; stroke-width: 2"/>
     <use xlink:href="#mca640fd847" x="328.056482" y="201.404648" style="fill: #1f77b4; stroke: #000000; stroke-width: 2"/>
     <use xlink:href="#mca640fd847" x="326.935821" y="230.60397" style="fill: #1f77b4; stroke: #000000; stroke-width: 2"/>
     <use xlink:href="#mca640fd847" x="318.744576" y="249.185357" style="fill: #1f77b4; stroke: #000000; stroke-width: 2"/>
     <use xlink:href="#mca640fd847" x="318.897565" y="233.258454" style="fill: #1f77b4; stroke: #000000; stroke-width: 2"/>
     <use xlink:href="#mca640fd847" x="330.637171" y="246.530873" style="fill: #1f77b4; stroke: #000000; stroke-width: 2"/>
     <use xlink:href="#mca640fd847" x="313.244888" y="243.876389" style="fill: #1f77b4; stroke: #000000; stroke-width: 2"/>
     <use xlink:href="#mca640fd847" x="339.819301" y="235.912938" style="fill: #1f77b4; stroke: #000000; stroke-width: 2"/>
     <use xlink:href="#mca640fd847" x="320.228759" y="259.803292" style="fill: #1f77b4; stroke: #000000; stroke-width: 2"/>
     <use xlink:href="#mca640fd847" x="343.215806" y="217.331551" style="fill: #1f77b4; stroke: #000000; stroke-width: 2"/>
     <use xlink:href="#mca640fd847" x="318.540318" y="217.331551" style="fill: #1f77b4; stroke: #000000; stroke-width: 2"/>
     <use xlink:href="#mca640fd847" x="323.401997" y="217.331551" style="fill: #1f77b4; stroke: #000000; stroke-width: 2"/>
     <use xlink:href="#mca640fd847" x="311.961243" y="304.929516" style="fill: #1f77b4; stroke: #000000; stroke-width: 2"/>
     <use xlink:href="#mca640fd847" x="315.391973" y="204.059132" style="fill: #1f77b4; stroke: #000000; stroke-width: 2"/>
     <use xlink:href="#mca640fd847" x="312.844078" y="304.929516" style="fill: #1f77b4; stroke: #000000; stroke-width: 2"/>
     <use xlink:href="#mca640fd847" x="328.746505" y="212.022584" style="fill: #1f77b4; stroke: #000000; stroke-width: 2"/>
     <use xlink:href="#mca640fd847" x="320.293144" y="185.477746" style="fill: #1f77b4; stroke: #000000; stroke-width: 2"/>
     <use xlink:href="#mca640fd847" x="307.680719" y="193.441197" style="fill: #1f77b4; stroke: #000000; stroke-width: 2"/>
     <use xlink:href="#mca640fd847" x="334.560338" y="198.750165" style="fill: #1f77b4; stroke: #000000; stroke-width: 2"/>
     <use xlink:href="#mca640fd847" x="311.011093" y="304.929516" style="fill: #1f77b4; stroke: #000000; stroke-width: 2"/>
     <use xlink:href="#mca640fd847" x="320.397046" y="180.168778" style="fill: #1f77b4; stroke: #000000; stroke-width: 2"/>
     <use xlink:href="#mca640fd847" x="322.992511" y="304.929516" style="fill: #1f77b4; stroke: #000000; stroke-width: 2"/>
     <use xlink:href="#mca640fd847" x="310.386259" y="190.786713" style="fill: #1f77b4; stroke: #000000; stroke-width: 2"/>
     <use xlink:href="#mca640fd847" x="309.983302" y="304.929516" style="fill: #1f77b4; stroke: #000000; stroke-width: 2"/>
     <use xlink:href="#mca640fd847" x="319.648866" y="304.929516" style="fill: #1f77b4; stroke: #000000; stroke-width: 2"/>
     <use xlink:href="#mca640fd847" x="316.111637" y="185.477746" style="fill: #1f77b4; stroke: #000000; stroke-width: 2"/>
     <use xlink:href="#mca640fd847" x="336.670146" y="204.059132" style="fill: #1f77b4; stroke: #000000; stroke-width: 2"/>
     <use xlink:href="#mca640fd847" x="339.110115" y="97.879781" style="fill: #1f77b4; stroke: #000000; stroke-width: 2"/>
     <use xlink:href="#mca640fd847" x="339.770986" y="143.006005" style="fill: #1f77b4; stroke: #000000; stroke-width: 2"/>
    </g>
   </g>
  </g>
 </g>
 <defs>
  <clipPath id="p260842c373">
   <rect x="57.6" y="41.472" width="357.12" height="266.112"/>
  </clipPath>
 </defs>
</svg>
