<?xml version="1.0" encoding="utf-8" standalone="no"?>
<!DOCTYPE svg PUBLIC "-//W3C//DTD SVG 1.1//EN"
  "http://www.w3.org/Graphics/SVG/1.1/DTD/svg11.dtd">
<svg xmlns:xlink="http://www.w3.org/1999/xlink" width="460.8pt" height="345.6pt" viewBox="0 0 460.8 345.6" xmlns="http://www.w3.org/2000/svg" version="1.1">
 <metadata>
  <rdf:RDF xmlns:dc="http://purl.org/dc/elements/1.1/" xmlns:cc="http://creativecommons.org/ns#" xmlns:rdf="http://www.w3.org/1999/02/22-rdf-syntax-ns#">
   <cc:Work>
    <dc:type rdf:resource="http://purl.org/dc/dcmitype/StillImage"/>
    <dc:date>2024-03-11T16:15:38.271118</dc:date>
    <dc:format>image/svg+xml</dc:format>
    <dc:creator>
     <cc:Agent>
      <dc:title>Matplotlib v3.7.3, https://matplotlib.org/</dc:title>
     </cc:Agent>
    </dc:creator>
   </cc:Work>
  </rdf:RDF>
 </metadata>
 <defs>
  <style type="text/css">*{stroke-linejoin: round; stroke-linecap: butt}</style>
 </defs>
 <g id="figure_1">
  <g id="patch_1">
   <path d="M 0 345.6 
L 460.8 345.6 
L 460.8 0 
L 0 0 
z
" style="fill: #ffffff"/>
  </g>
  <g id="axes_1">
   <g id="patch_2">
    <path d="M 57.6 307.584 
L 414.72 307.584 
L 414.72 41.472 
L 57.6 41.472 
z
" style="fill: #ffffff"/>
   </g>
   <g id="patch_3">
    <path d="M 75.456 278.95436 
L 218.304 278.95436 
L 218.304 229.441567 
L 75.456 229.441567 
L 75.456 278.95436 
z
" clip-path="url(#p9504f0acdf)" style="fill: #3274a1; stroke: #3f3f3f; stroke-width: 1.5; stroke-linejoin: miter"/>
   </g>
   <g id="patch_4">
    <path d="M 254.016 294.677037 
L 396.864 294.677037 
L 396.864 291.341202 
L 254.016 291.341202 
L 254.016 294.677037 
z
" clip-path="url(#p9504f0acdf)" style="fill: #e1812c; stroke: #3f3f3f; stroke-width: 1.5; stroke-linejoin: miter"/>
   </g>
   <g id="matplotlib.axis_1">
    <g id="xtick_1">
     <g id="line2d_1">
      <defs>
       <path id="m58c6003d68" d="M 0 0 
L 0 3.5 
" style="stroke: #000000; stroke-width: 0.8"/>
      </defs>
      <g>
       <use xlink:href="#m58c6003d68" x="146.88" y="307.584" style="stroke: #000000; stroke-width: 0.8"/>
      </g>
     </g>
     <g id="text_1">
      <!-- Unanchored -->
      <g transform="translate(116.647969 322.182437) scale(0.1 -0.1)">
       <defs>
        <path id="DejaVuSans-55" d="M 556 4666 
L 1191 4666 
L 1191 1831 
Q 1191 1081 1462 751 
Q 1734 422 2344 422 
Q 2950 422 3222 751 
Q 3494 1081 3494 1831 
L 3494 4666 
L 4128 4666 
L 4128 1753 
Q 4128 841 3676 375 
Q 3225 -91 2344 -91 
Q 1459 -91 1007 375 
Q 556 841 556 1753 
L 556 4666 
z
" transform="scale(0.015625)"/>
        <path id="DejaVuSans-6e" d="M 3513 2113 
L 3513 0 
L 2938 0 
L 2938 2094 
Q 2938 2591 2744 2837 
Q 2550 3084 2163 3084 
Q 1697 3084 1428 2787 
Q 1159 2491 1159 1978 
L 1159 0 
L 581 0 
L 581 3500 
L 1159 3500 
L 1159 2956 
Q 1366 3272 1645 3428 
Q 1925 3584 2291 3584 
Q 2894 3584 3203 3211 
Q 3513 2838 3513 2113 
z
" transform="scale(0.015625)"/>
        <path id="DejaVuSans-61" d="M 2194 1759 
Q 1497 1759 1228 1600 
Q 959 1441 959 1056 
Q 959 750 1161 570 
Q 1363 391 1709 391 
Q 2188 391 2477 730 
Q 2766 1069 2766 1631 
L 2766 1759 
L 2194 1759 
z
M 3341 1997 
L 3341 0 
L 2766 0 
L 2766 531 
Q 2569 213 2275 61 
Q 1981 -91 1556 -91 
Q 1019 -91 701 211 
Q 384 513 384 1019 
Q 384 1609 779 1909 
Q 1175 2209 1959 2209 
L 2766 2209 
L 2766 2266 
Q 2766 2663 2505 2880 
Q 2244 3097 1772 3097 
Q 1472 3097 1187 3025 
Q 903 2953 641 2809 
L 641 3341 
Q 956 3463 1253 3523 
Q 1550 3584 1831 3584 
Q 2591 3584 2966 3190 
Q 3341 2797 3341 1997 
z
" transform="scale(0.015625)"/>
        <path id="DejaVuSans-63" d="M 3122 3366 
L 3122 2828 
Q 2878 2963 2633 3030 
Q 2388 3097 2138 3097 
Q 1578 3097 1268 2742 
Q 959 2388 959 1747 
Q 959 1106 1268 751 
Q 1578 397 2138 397 
Q 2388 397 2633 464 
Q 2878 531 3122 666 
L 3122 134 
Q 2881 22 2623 -34 
Q 2366 -91 2075 -91 
Q 1284 -91 818 406 
Q 353 903 353 1747 
Q 353 2603 823 3093 
Q 1294 3584 2113 3584 
Q 2378 3584 2631 3529 
Q 2884 3475 3122 3366 
z
" transform="scale(0.015625)"/>
        <path id="DejaVuSans-68" d="M 3513 2113 
L 3513 0 
L 2938 0 
L 2938 2094 
Q 2938 2591 2744 2837 
Q 2550 3084 2163 3084 
Q 1697 3084 1428 2787 
Q 1159 2491 1159 1978 
L 1159 0 
L 581 0 
L 581 4863 
L 1159 4863 
L 1159 2956 
Q 1366 3272 1645 3428 
Q 1925 3584 2291 3584 
Q 2894 3584 3203 3211 
Q 3513 2838 3513 2113 
z
" transform="scale(0.015625)"/>
        <path id="DejaVuSans-6f" d="M 1959 3097 
Q 1497 3097 1228 2736 
Q 959 2375 959 1747 
Q 959 1119 1226 758 
Q 1494 397 1959 397 
Q 2419 397 2687 759 
Q 2956 1122 2956 1747 
Q 2956 2369 2687 2733 
Q 2419 3097 1959 3097 
z
M 1959 3584 
Q 2709 3584 3137 3096 
Q 3566 2609 3566 1747 
Q 3566 888 3137 398 
Q 2709 -91 1959 -91 
Q 1206 -91 779 398 
Q 353 888 353 1747 
Q 353 2609 779 3096 
Q 1206 3584 1959 3584 
z
" transform="scale(0.015625)"/>
        <path id="DejaVuSans-72" d="M 2631 2963 
Q 2534 3019 2420 3045 
Q 2306 3072 2169 3072 
Q 1681 3072 1420 2755 
Q 1159 2438 1159 1844 
L 1159 0 
L 581 0 
L 581 3500 
L 1159 3500 
L 1159 2956 
Q 1341 3275 1631 3429 
Q 1922 3584 2338 3584 
Q 2397 3584 2469 3576 
Q 2541 3569 2628 3553 
L 2631 2963 
z
" transform="scale(0.015625)"/>
        <path id="DejaVuSans-65" d="M 3597 1894 
L 3597 1613 
L 953 1613 
Q 991 1019 1311 708 
Q 1631 397 2203 397 
Q 2534 397 2845 478 
Q 3156 559 3463 722 
L 3463 178 
Q 3153 47 2828 -22 
Q 2503 -91 2169 -91 
Q 1331 -91 842 396 
Q 353 884 353 1716 
Q 353 2575 817 3079 
Q 1281 3584 2069 3584 
Q 2775 3584 3186 3129 
Q 3597 2675 3597 1894 
z
M 3022 2063 
Q 3016 2534 2758 2815 
Q 2500 3097 2075 3097 
Q 1594 3097 1305 2825 
Q 1016 2553 972 2059 
L 3022 2063 
z
" transform="scale(0.015625)"/>
        <path id="DejaVuSans-64" d="M 2906 2969 
L 2906 4863 
L 3481 4863 
L 3481 0 
L 2906 0 
L 2906 525 
Q 2725 213 2448 61 
Q 2172 -91 1784 -91 
Q 1150 -91 751 415 
Q 353 922 353 1747 
Q 353 2572 751 3078 
Q 1150 3584 1784 3584 
Q 2172 3584 2448 3432 
Q 2725 3281 2906 2969 
z
M 947 1747 
Q 947 1113 1208 752 
Q 1469 391 1925 391 
Q 2381 391 2643 752 
Q 2906 1113 2906 1747 
Q 2906 2381 2643 2742 
Q 2381 3103 1925 3103 
Q 1469 3103 1208 2742 
Q 947 2381 947 1747 
z
" transform="scale(0.015625)"/>
       </defs>
       <use xlink:href="#DejaVuSans-55"/>
       <use xlink:href="#DejaVuSans-6e" x="73.193359"/>
       <use xlink:href="#DejaVuSans-61" x="136.572266"/>
       <use xlink:href="#DejaVuSans-6e" x="197.851562"/>
       <use xlink:href="#DejaVuSans-63" x="261.230469"/>
       <use xlink:href="#DejaVuSans-68" x="316.210938"/>
       <use xlink:href="#DejaVuSans-6f" x="379.589844"/>
       <use xlink:href="#DejaVuSans-72" x="440.771484"/>
       <use xlink:href="#DejaVuSans-65" x="479.634766"/>
       <use xlink:href="#DejaVuSans-64" x="541.158203"/>
      </g>
     </g>
    </g>
    <g id="xtick_2">
     <g id="line2d_2">
      <g>
       <use xlink:href="#m58c6003d68" x="325.44" y="307.584" style="stroke: #000000; stroke-width: 0.8"/>
      </g>
     </g>
     <g id="text_2">
      <!-- Anchored -->
      <g transform="translate(301.679844 322.182437) scale(0.1 -0.1)">
       <defs>
        <path id="DejaVuSans-41" d="M 2188 4044 
L 1331 1722 
L 3047 1722 
L 2188 4044 
z
M 1831 4666 
L 2547 4666 
L 4325 0 
L 3669 0 
L 3244 1197 
L 1141 1197 
L 716 0 
L 50 0 
L 1831 4666 
z
" transform="scale(0.015625)"/>
       </defs>
       <use xlink:href="#DejaVuSans-41"/>
       <use xlink:href="#DejaVuSans-6e" x="68.408203"/>
       <use xlink:href="#DejaVuSans-63" x="131.787109"/>
       <use xlink:href="#DejaVuSans-68" x="186.767578"/>
       <use xlink:href="#DejaVuSans-6f" x="250.146484"/>
       <use xlink:href="#DejaVuSans-72" x="311.328125"/>
       <use xlink:href="#DejaVuSans-65" x="350.191406"/>
       <use xlink:href="#DejaVuSans-64" x="411.714844"/>
      </g>
     </g>
    </g>
    <g id="text_3">
     <!-- Device -->
     <g transform="translate(219.059219 335.860562) scale(0.1 -0.1)">
      <defs>
       <path id="DejaVuSans-44" d="M 1259 4147 
L 1259 519 
L 2022 519 
Q 2988 519 3436 956 
Q 3884 1394 3884 2338 
Q 3884 3275 3436 3711 
Q 2988 4147 2022 4147 
L 1259 4147 
z
M 628 4666 
L 1925 4666 
Q 3281 4666 3915 4102 
Q 4550 3538 4550 2338 
Q 4550 1131 3912 565 
Q 3275 0 1925 0 
L 628 0 
L 628 4666 
z
" transform="scale(0.015625)"/>
       <path id="DejaVuSans-76" d="M 191 3500 
L 800 3500 
L 1894 563 
L 2988 3500 
L 3597 3500 
L 2284 0 
L 1503 0 
L 191 3500 
z
" transform="scale(0.015625)"/>
       <path id="DejaVuSans-69" d="M 603 3500 
L 1178 3500 
L 1178 0 
L 603 0 
L 603 3500 
z
M 603 4863 
L 1178 4863 
L 1178 4134 
L 603 4134 
L 603 4863 
z
" transform="scale(0.015625)"/>
      </defs>
      <use xlink:href="#DejaVuSans-44"/>
      <use xlink:href="#DejaVuSans-65" x="77.001953"/>
      <use xlink:href="#DejaVuSans-76" x="138.525391"/>
      <use xlink:href="#DejaVuSans-69" x="197.705078"/>
      <use xlink:href="#DejaVuSans-63" x="225.488281"/>
      <use xlink:href="#DejaVuSans-65" x="280.46875"/>
     </g>
    </g>
   </g>
   <g id="matplotlib.axis_2">
    <g id="ytick_1">
     <g id="line2d_3">
      <defs>
       <path id="mec7bf5b785" d="M 0 0 
L -3.5 0 
" style="stroke: #000000; stroke-width: 0.8"/>
      </defs>
      <g>
       <use xlink:href="#mec7bf5b785" x="57.6" y="296.386078" style="stroke: #000000; stroke-width: 0.8"/>
      </g>
     </g>
     <g id="text_4">
      <!-- 0.00 -->
      <g transform="translate(28.334375 300.185296) scale(0.1 -0.1)">
       <defs>
        <path id="DejaVuSans-30" d="M 2034 4250 
Q 1547 4250 1301 3770 
Q 1056 3291 1056 2328 
Q 1056 1369 1301 889 
Q 1547 409 2034 409 
Q 2525 409 2770 889 
Q 3016 1369 3016 2328 
Q 3016 3291 2770 3770 
Q 2525 4250 2034 4250 
z
M 2034 4750 
Q 2819 4750 3233 4129 
Q 3647 3509 3647 2328 
Q 3647 1150 3233 529 
Q 2819 -91 2034 -91 
Q 1250 -91 836 529 
Q 422 1150 422 2328 
Q 422 3509 836 4129 
Q 1250 4750 2034 4750 
z
" transform="scale(0.015625)"/>
        <path id="DejaVuSans-2e" d="M 684 794 
L 1344 794 
L 1344 0 
L 684 0 
L 684 794 
z
" transform="scale(0.015625)"/>
       </defs>
       <use xlink:href="#DejaVuSans-30"/>
       <use xlink:href="#DejaVuSans-2e" x="63.623047"/>
       <use xlink:href="#DejaVuSans-30" x="95.410156"/>
       <use xlink:href="#DejaVuSans-30" x="159.033203"/>
      </g>
     </g>
    </g>
    <g id="ytick_2">
     <g id="line2d_4">
      <g>
       <use xlink:href="#mec7bf5b785" x="57.6" y="255.383128" style="stroke: #000000; stroke-width: 0.8"/>
      </g>
     </g>
     <g id="text_5">
      <!-- 0.02 -->
      <g transform="translate(28.334375 259.182346) scale(0.1 -0.1)">
       <defs>
        <path id="DejaVuSans-32" d="M 1228 531 
L 3431 531 
L 3431 0 
L 469 0 
L 469 531 
Q 828 903 1448 1529 
Q 2069 2156 2228 2338 
Q 2531 2678 2651 2914 
Q 2772 3150 2772 3378 
Q 2772 3750 2511 3984 
Q 2250 4219 1831 4219 
Q 1534 4219 1204 4116 
Q 875 4013 500 3803 
L 500 4441 
Q 881 4594 1212 4672 
Q 1544 4750 1819 4750 
Q 2544 4750 2975 4387 
Q 3406 4025 3406 3419 
Q 3406 3131 3298 2873 
Q 3191 2616 2906 2266 
Q 2828 2175 2409 1742 
Q 1991 1309 1228 531 
z
" transform="scale(0.015625)"/>
       </defs>
       <use xlink:href="#DejaVuSans-30"/>
       <use xlink:href="#DejaVuSans-2e" x="63.623047"/>
       <use xlink:href="#DejaVuSans-30" x="95.410156"/>
       <use xlink:href="#DejaVuSans-32" x="159.033203"/>
      </g>
     </g>
    </g>
    <g id="ytick_3">
     <g id="line2d_5">
      <g>
       <use xlink:href="#mec7bf5b785" x="57.6" y="214.380178" style="stroke: #000000; stroke-width: 0.8"/>
      </g>
     </g>
     <g id="text_6">
      <!-- 0.04 -->
      <g transform="translate(28.334375 218.179397) scale(0.1 -0.1)">
       <defs>
        <path id="DejaVuSans-34" d="M 2419 4116 
L 825 1625 
L 2419 1625 
L 2419 4116 
z
M 2253 4666 
L 3047 4666 
L 3047 1625 
L 3713 1625 
L 3713 1100 
L 3047 1100 
L 3047 0 
L 2419 0 
L 2419 1100 
L 313 1100 
L 313 1709 
L 2253 4666 
z
" transform="scale(0.015625)"/>
       </defs>
       <use xlink:href="#DejaVuSans-30"/>
       <use xlink:href="#DejaVuSans-2e" x="63.623047"/>
       <use xlink:href="#DejaVuSans-30" x="95.410156"/>
       <use xlink:href="#DejaVuSans-34" x="159.033203"/>
      </g>
     </g>
    </g>
    <g id="ytick_4">
     <g id="line2d_6">
      <g>
       <use xlink:href="#mec7bf5b785" x="57.6" y="173.377228" style="stroke: #000000; stroke-width: 0.8"/>
      </g>
     </g>
     <g id="text_7">
      <!-- 0.06 -->
      <g transform="translate(28.334375 177.176447) scale(0.1 -0.1)">
       <defs>
        <path id="DejaVuSans-36" d="M 2113 2584 
Q 1688 2584 1439 2293 
Q 1191 2003 1191 1497 
Q 1191 994 1439 701 
Q 1688 409 2113 409 
Q 2538 409 2786 701 
Q 3034 994 3034 1497 
Q 3034 2003 2786 2293 
Q 2538 2584 2113 2584 
z
M 3366 4563 
L 3366 3988 
Q 3128 4100 2886 4159 
Q 2644 4219 2406 4219 
Q 1781 4219 1451 3797 
Q 1122 3375 1075 2522 
Q 1259 2794 1537 2939 
Q 1816 3084 2150 3084 
Q 2853 3084 3261 2657 
Q 3669 2231 3669 1497 
Q 3669 778 3244 343 
Q 2819 -91 2113 -91 
Q 1303 -91 875 529 
Q 447 1150 447 2328 
Q 447 3434 972 4092 
Q 1497 4750 2381 4750 
Q 2619 4750 2861 4703 
Q 3103 4656 3366 4563 
z
" transform="scale(0.015625)"/>
       </defs>
       <use xlink:href="#DejaVuSans-30"/>
       <use xlink:href="#DejaVuSans-2e" x="63.623047"/>
       <use xlink:href="#DejaVuSans-30" x="95.410156"/>
       <use xlink:href="#DejaVuSans-36" x="159.033203"/>
      </g>
     </g>
    </g>
    <g id="ytick_5">
     <g id="line2d_7">
      <g>
       <use xlink:href="#mec7bf5b785" x="57.6" y="132.374278" style="stroke: #000000; stroke-width: 0.8"/>
      </g>
     </g>
     <g id="text_8">
      <!-- 0.08 -->
      <g transform="translate(28.334375 136.173497) scale(0.1 -0.1)">
       <defs>
        <path id="DejaVuSans-38" d="M 2034 2216 
Q 1584 2216 1326 1975 
Q 1069 1734 1069 1313 
Q 1069 891 1326 650 
Q 1584 409 2034 409 
Q 2484 409 2743 651 
Q 3003 894 3003 1313 
Q 3003 1734 2745 1975 
Q 2488 2216 2034 2216 
z
M 1403 2484 
Q 997 2584 770 2862 
Q 544 3141 544 3541 
Q 544 4100 942 4425 
Q 1341 4750 2034 4750 
Q 2731 4750 3128 4425 
Q 3525 4100 3525 3541 
Q 3525 3141 3298 2862 
Q 3072 2584 2669 2484 
Q 3125 2378 3379 2068 
Q 3634 1759 3634 1313 
Q 3634 634 3220 271 
Q 2806 -91 2034 -91 
Q 1263 -91 848 271 
Q 434 634 434 1313 
Q 434 1759 690 2068 
Q 947 2378 1403 2484 
z
M 1172 3481 
Q 1172 3119 1398 2916 
Q 1625 2713 2034 2713 
Q 2441 2713 2670 2916 
Q 2900 3119 2900 3481 
Q 2900 3844 2670 4047 
Q 2441 4250 2034 4250 
Q 1625 4250 1398 4047 
Q 1172 3844 1172 3481 
z
" transform="scale(0.015625)"/>
       </defs>
       <use xlink:href="#DejaVuSans-30"/>
       <use xlink:href="#DejaVuSans-2e" x="63.623047"/>
       <use xlink:href="#DejaVuSans-30" x="95.410156"/>
       <use xlink:href="#DejaVuSans-38" x="159.033203"/>
      </g>
     </g>
    </g>
    <g id="ytick_6">
     <g id="line2d_8">
      <g>
       <use xlink:href="#mec7bf5b785" x="57.6" y="91.371328" style="stroke: #000000; stroke-width: 0.8"/>
      </g>
     </g>
     <g id="text_9">
      <!-- 0.10 -->
      <g transform="translate(28.334375 95.170547) scale(0.1 -0.1)">
       <defs>
        <path id="DejaVuSans-31" d="M 794 531 
L 1825 531 
L 1825 4091 
L 703 3866 
L 703 4441 
L 1819 4666 
L 2450 4666 
L 2450 531 
L 3481 531 
L 3481 0 
L 794 0 
L 794 531 
z
" transform="scale(0.015625)"/>
       </defs>
       <use xlink:href="#DejaVuSans-30"/>
       <use xlink:href="#DejaVuSans-2e" x="63.623047"/>
       <use xlink:href="#DejaVuSans-31" x="95.410156"/>
       <use xlink:href="#DejaVuSans-30" x="159.033203"/>
      </g>
     </g>
    </g>
    <g id="ytick_7">
     <g id="line2d_9">
      <g>
       <use xlink:href="#mec7bf5b785" x="57.6" y="50.368378" style="stroke: #000000; stroke-width: 0.8"/>
      </g>
     </g>
     <g id="text_10">
      <!-- 0.12 -->
      <g transform="translate(28.334375 54.167597) scale(0.1 -0.1)">
       <use xlink:href="#DejaVuSans-30"/>
       <use xlink:href="#DejaVuSans-2e" x="63.623047"/>
       <use xlink:href="#DejaVuSans-31" x="95.410156"/>
       <use xlink:href="#DejaVuSans-32" x="159.033203"/>
      </g>
     </g>
    </g>
    <g id="text_11">
     <!-- peak_amp -->
     <g transform="translate(21.976562 200.34675) rotate(-90) scale(0.1 -0.1)">
      <defs>
       <path id="DejaVuSans-70" d="M 1159 525 
L 1159 -1331 
L 581 -1331 
L 581 3500 
L 1159 3500 
L 1159 2969 
Q 1341 3281 1617 3432 
Q 1894 3584 2278 3584 
Q 2916 3584 3314 3078 
Q 3713 2572 3713 1747 
Q 3713 922 3314 415 
Q 2916 -91 2278 -91 
Q 1894 -91 1617 61 
Q 1341 213 1159 525 
z
M 3116 1747 
Q 3116 2381 2855 2742 
Q 2594 3103 2138 3103 
Q 1681 3103 1420 2742 
Q 1159 2381 1159 1747 
Q 1159 1113 1420 752 
Q 1681 391 2138 391 
Q 2594 391 2855 752 
Q 3116 1113 3116 1747 
z
" transform="scale(0.015625)"/>
       <path id="DejaVuSans-6b" d="M 581 4863 
L 1159 4863 
L 1159 1991 
L 2875 3500 
L 3609 3500 
L 1753 1863 
L 3688 0 
L 2938 0 
L 1159 1709 
L 1159 0 
L 581 0 
L 581 4863 
z
" transform="scale(0.015625)"/>
       <path id="DejaVuSans-5f" d="M 3263 -1063 
L 3263 -1509 
L -63 -1509 
L -63 -1063 
L 3263 -1063 
z
" transform="scale(0.015625)"/>
       <path id="DejaVuSans-6d" d="M 3328 2828 
Q 3544 3216 3844 3400 
Q 4144 3584 4550 3584 
Q 5097 3584 5394 3201 
Q 5691 2819 5691 2113 
L 5691 0 
L 5113 0 
L 5113 2094 
Q 5113 2597 4934 2840 
Q 4756 3084 4391 3084 
Q 3944 3084 3684 2787 
Q 3425 2491 3425 1978 
L 3425 0 
L 2847 0 
L 2847 2094 
Q 2847 2600 2669 2842 
Q 2491 3084 2119 3084 
Q 1678 3084 1418 2786 
Q 1159 2488 1159 1978 
L 1159 0 
L 581 0 
L 581 3500 
L 1159 3500 
L 1159 2956 
Q 1356 3278 1631 3431 
Q 1906 3584 2284 3584 
Q 2666 3584 2933 3390 
Q 3200 3197 3328 2828 
z
" transform="scale(0.015625)"/>
      </defs>
      <use xlink:href="#DejaVuSans-70"/>
      <use xlink:href="#DejaVuSans-65" x="63.476562"/>
      <use xlink:href="#DejaVuSans-61" x="125"/>
      <use xlink:href="#DejaVuSans-6b" x="186.279297"/>
      <use xlink:href="#DejaVuSans-5f" x="244.189453"/>
      <use xlink:href="#DejaVuSans-61" x="294.189453"/>
      <use xlink:href="#DejaVuSans-6d" x="355.46875"/>
      <use xlink:href="#DejaVuSans-70" x="452.880859"/>
     </g>
    </g>
   </g>
   <g id="line2d_10">
    <path d="M 146.88 278.95436 
L 146.88 294.431978 
" clip-path="url(#p9504f0acdf)" style="fill: none; stroke: #3f3f3f; stroke-width: 1.5; stroke-linecap: square"/>
   </g>
   <g id="line2d_11">
    <path d="M 146.88 229.441567 
L 146.88 183.459906 
" clip-path="url(#p9504f0acdf)" style="fill: none; stroke: #3f3f3f; stroke-width: 1.5; stroke-linecap: square"/>
   </g>
   <g id="line2d_12">
    <path d="M 111.168 294.431978 
L 182.592 294.431978 
" clip-path="url(#p9504f0acdf)" style="fill: none; stroke: #3f3f3f; stroke-width: 1.5; stroke-linecap: square"/>
   </g>
   <g id="line2d_13">
    <path d="M 111.168 183.459906 
L 182.592 183.459906 
" clip-path="url(#p9504f0acdf)" style="fill: none; stroke: #3f3f3f; stroke-width: 1.5; stroke-linecap: square"/>
   </g>
   <g id="line2d_14">
    <defs>
     <path id="m55ca3bcc01" d="M -0 3.535534 
L 2.12132 0 
L -0 -3.535534 
L -2.12132 -0 
z
" style="stroke: #3f3f3f; stroke-linejoin: miter"/>
    </defs>
    <g clip-path="url(#p9504f0acdf)">
     <use xlink:href="#m55ca3bcc01" x="146.88" y="53.568" style="fill: #3f3f3f; stroke: #3f3f3f; stroke-linejoin: miter"/>
    </g>
   </g>
   <g id="line2d_15">
    <path d="M 325.44 294.677037 
L 325.44 295.488 
" clip-path="url(#p9504f0acdf)" style="fill: none; stroke: #3f3f3f; stroke-width: 1.5; stroke-linecap: square"/>
   </g>
   <g id="line2d_16">
    <path d="M 325.44 291.341202 
L 325.44 286.841968 
" clip-path="url(#p9504f0acdf)" style="fill: none; stroke: #3f3f3f; stroke-width: 1.5; stroke-linecap: square"/>
   </g>
   <g id="line2d_17">
    <path d="M 289.728 295.488 
L 361.152 295.488 
" clip-path="url(#p9504f0acdf)" style="fill: none; stroke: #3f3f3f; stroke-width: 1.5; stroke-linecap: square"/>
   </g>
   <g id="line2d_18">
    <path d="M 289.728 286.841968 
L 361.152 286.841968 
" clip-path="url(#p9504f0acdf)" style="fill: none; stroke: #3f3f3f; stroke-width: 1.5; stroke-linecap: square"/>
   </g>
   <g id="line2d_19">
    <g clip-path="url(#p9504f0acdf)">
     <use xlink:href="#m55ca3bcc01" x="325.44" y="281.910162" style="fill: #3f3f3f; stroke: #3f3f3f; stroke-linejoin: miter"/>
     <use xlink:href="#m55ca3bcc01" x="325.44" y="285.155839" style="fill: #3f3f3f; stroke: #3f3f3f; stroke-linejoin: miter"/>
     <use xlink:href="#m55ca3bcc01" x="325.44" y="284.701761" style="fill: #3f3f3f; stroke: #3f3f3f; stroke-linejoin: miter"/>
     <use xlink:href="#m55ca3bcc01" x="325.44" y="285.994679" style="fill: #3f3f3f; stroke: #3f3f3f; stroke-linejoin: miter"/>
     <use xlink:href="#m55ca3bcc01" x="325.44" y="277.665108" style="fill: #3f3f3f; stroke: #3f3f3f; stroke-linejoin: miter"/>
     <use xlink:href="#m55ca3bcc01" x="325.44" y="285.545724" style="fill: #3f3f3f; stroke: #3f3f3f; stroke-linejoin: miter"/>
     <use xlink:href="#m55ca3bcc01" x="325.44" y="286.003175" style="fill: #3f3f3f; stroke: #3f3f3f; stroke-linejoin: miter"/>
     <use xlink:href="#m55ca3bcc01" x="325.44" y="283.739314" style="fill: #3f3f3f; stroke: #3f3f3f; stroke-linejoin: miter"/>
    </g>
   </g>
   <g id="line2d_20">
    <path d="M 75.456 257.261729 
L 218.304 257.261729 
" clip-path="url(#p9504f0acdf)" style="fill: none; stroke: #3f3f3f; stroke-width: 1.5; stroke-linecap: square"/>
   </g>
   <g id="line2d_21">
    <path d="M 254.016 294.038282 
L 396.864 294.038282 
" clip-path="url(#p9504f0acdf)" style="fill: none; stroke: #3f3f3f; stroke-width: 1.5; stroke-linecap: square"/>
   </g>
   <g id="patch_5">
    <path d="M 57.6 307.584 
L 57.6 41.472 
" style="fill: none; stroke: #000000; stroke-width: 0.8; stroke-linejoin: miter; stroke-linecap: square"/>
   </g>
   <g id="patch_6">
    <path d="M 414.72 307.584 
L 414.72 41.472 
" style="fill: none; stroke: #000000; stroke-width: 0.8; stroke-linejoin: miter; stroke-linecap: square"/>
   </g>
   <g id="patch_7">
    <path d="M 57.6 307.584 
L 414.72 307.584 
" style="fill: none; stroke: #000000; stroke-width: 0.8; stroke-linejoin: miter; stroke-linecap: square"/>
   </g>
   <g id="patch_8">
    <path d="M 57.6 41.472 
L 414.72 41.472 
" style="fill: none; stroke: #000000; stroke-width: 0.8; stroke-linejoin: miter; stroke-linecap: square"/>
   </g>
   <g id="PathCollection_1">
    <defs>
     <path id="m65f9b56233" d="M 0 2.5 
C 0.663008 2.5 1.29895 2.236584 1.767767 1.767767 
C 2.236584 1.29895 2.5 0.663008 2.5 0 
C 2.5 -0.663008 2.236584 -1.29895 1.767767 -1.767767 
C 1.29895 -2.236584 0.663008 -2.5 0 -2.5 
C -0.663008 -2.5 -1.29895 -2.236584 -1.767767 -1.767767 
C -2.236584 -1.29895 -2.5 -0.663008 -2.5 0 
C -2.5 0.663008 -2.236584 1.29895 -1.767767 1.767767 
C -1.29895 2.236584 -0.663008 2.5 0 2.5 
z
" style="stroke: #000000; stroke-width: 2"/>
    </defs>
    <g clip-path="url(#p9504f0acdf)">
     <use xlink:href="#m65f9b56233" x="132.825558" y="255.212708" style="fill: #1f77b4; stroke: #000000; stroke-width: 2"/>
     <use xlink:href="#m65f9b56233" x="149.013514" y="242.177674" style="fill: #1f77b4; stroke: #000000; stroke-width: 2"/>
     <use xlink:href="#m65f9b56233" x="142.166699" y="273.258366" style="fill: #1f77b4; stroke: #000000; stroke-width: 2"/>
     <use xlink:href="#m65f9b56233" x="150.394681" y="219.056051" style="fill: #1f77b4; stroke: #000000; stroke-width: 2"/>
     <use xlink:href="#m65f9b56233" x="142.95332" y="260.765042" style="fill: #1f77b4; stroke: #000000; stroke-width: 2"/>
     <use xlink:href="#m65f9b56233" x="145.51776" y="203.143149" style="fill: #1f77b4; stroke: #000000; stroke-width: 2"/>
     <use xlink:href="#m65f9b56233" x="137.444837" y="254.361124" style="fill: #1f77b4; stroke: #000000; stroke-width: 2"/>
     <use xlink:href="#m65f9b56233" x="163.465528" y="185.778251" style="fill: #1f77b4; stroke: #000000; stroke-width: 2"/>
     <use xlink:href="#m65f9b56233" x="140.877439" y="210.746095" style="fill: #1f77b4; stroke: #000000; stroke-width: 2"/>
     <use xlink:href="#m65f9b56233" x="131.390561" y="207.331278" style="fill: #1f77b4; stroke: #000000; stroke-width: 2"/>
     <use xlink:href="#m65f9b56233" x="144.069729" y="293.393182" style="fill: #1f77b4; stroke: #000000; stroke-width: 2"/>
     <use xlink:href="#m65f9b56233" x="140.965735" y="283.721553" style="fill: #1f77b4; stroke: #000000; stroke-width: 2"/>
     <use xlink:href="#m65f9b56233" x="155.999589" y="276.98352" style="fill: #1f77b4; stroke: #000000; stroke-width: 2"/>
     <use xlink:href="#m65f9b56233" x="146.585662" y="294.050783" style="fill: #1f77b4; stroke: #000000; stroke-width: 2"/>
     <use xlink:href="#m65f9b56233" x="144.637136" y="286.595056" style="fill: #1f77b4; stroke: #000000; stroke-width: 2"/>
     <use xlink:href="#m65f9b56233" x="158.487095" y="293.533479" style="fill: #1f77b4; stroke: #000000; stroke-width: 2"/>
     <use xlink:href="#m65f9b56233" x="163.603224" y="288.503463" style="fill: #1f77b4; stroke: #000000; stroke-width: 2"/>
     <use xlink:href="#m65f9b56233" x="133.004424" y="294.431978" style="fill: #1f77b4; stroke: #000000; stroke-width: 2"/>
     <use xlink:href="#m65f9b56233" x="140.857798" y="253.997887" style="fill: #1f77b4; stroke: #000000; stroke-width: 2"/>
     <use xlink:href="#m65f9b56233" x="150.497017" y="293.37615" style="fill: #1f77b4; stroke: #000000; stroke-width: 2"/>
     <use xlink:href="#m65f9b56233" x="154.091093" y="204.695181" style="fill: #1f77b4; stroke: #000000; stroke-width: 2"/>
     <use xlink:href="#m65f9b56233" x="150.733607" y="231.644856" style="fill: #1f77b4; stroke: #000000; stroke-width: 2"/>
     <use xlink:href="#m65f9b56233" x="145.783677" y="234.063377" style="fill: #1f77b4; stroke: #000000; stroke-width: 2"/>
     <use xlink:href="#m65f9b56233" x="148.067531" y="236.585661" style="fill: #1f77b4; stroke: #000000; stroke-width: 2"/>
     <use xlink:href="#m65f9b56233" x="142.34419" y="255.074352" style="fill: #1f77b4; stroke: #000000; stroke-width: 2"/>
     <use xlink:href="#m65f9b56233" x="133.138894" y="275.63253" style="fill: #1f77b4; stroke: #000000; stroke-width: 2"/>
     <use xlink:href="#m65f9b56233" x="143.529752" y="183.459906" style="fill: #1f77b4; stroke: #000000; stroke-width: 2"/>
     <use xlink:href="#m65f9b56233" x="149.738971" y="216.650753" style="fill: #1f77b4; stroke: #000000; stroke-width: 2"/>
     <use xlink:href="#m65f9b56233" x="149.738726" y="230.58604" style="fill: #1f77b4; stroke: #000000; stroke-width: 2"/>
     <use xlink:href="#m65f9b56233" x="132.562771" y="53.568" style="fill: #1f77b4; stroke: #000000; stroke-width: 2"/>
     <use xlink:href="#m65f9b56233" x="158.537333" y="252.984575" style="fill: #1f77b4; stroke: #000000; stroke-width: 2"/>
     <use xlink:href="#m65f9b56233" x="158.413119" y="289.445525" style="fill: #1f77b4; stroke: #000000; stroke-width: 2"/>
     <use xlink:href="#m65f9b56233" x="134.699782" y="264.00904" style="fill: #1f77b4; stroke: #000000; stroke-width: 2"/>
     <use xlink:href="#m65f9b56233" x="143.878516" y="271.883916" style="fill: #1f77b4; stroke: #000000; stroke-width: 2"/>
     <use xlink:href="#m65f9b56233" x="164.701546" y="279.080879" style="fill: #1f77b4; stroke: #000000; stroke-width: 2"/>
     <use xlink:href="#m65f9b56233" x="142.416183" y="272.046473" style="fill: #1f77b4; stroke: #000000; stroke-width: 2"/>
     <use xlink:href="#m65f9b56233" x="143.368782" y="259.31075" style="fill: #1f77b4; stroke: #000000; stroke-width: 2"/>
     <use xlink:href="#m65f9b56233" x="149.232717" y="226.008148" style="fill: #1f77b4; stroke: #000000; stroke-width: 2"/>
     <use xlink:href="#m65f9b56233" x="153.142073" y="278.813021" style="fill: #1f77b4; stroke: #000000; stroke-width: 2"/>
     <use xlink:href="#m65f9b56233" x="143.914656" y="278.912187" style="fill: #1f77b4; stroke: #000000; stroke-width: 2"/>
    </g>
   </g>
   <g id="PathCollection_2">
    <g clip-path="url(#p9504f0acdf)">
     <use xlink:href="#m65f9b56233" x="340.443037" y="281.910162" style="fill: #1f77b4; stroke: #000000; stroke-width: 2"/>
     <use xlink:href="#m65f9b56233" x="324.296969" y="286.841968" style="fill: #1f77b4; stroke: #000000; stroke-width: 2"/>
     <use xlink:href="#m65f9b56233" x="334.671994" y="285.155839" style="fill: #1f77b4; stroke: #000000; stroke-width: 2"/>
     <use xlink:href="#m65f9b56233" x="310.259177" y="284.701761" style="fill: #1f77b4; stroke: #000000; stroke-width: 2"/>
     <use xlink:href="#m65f9b56233" x="332.851899" y="285.994679" style="fill: #1f77b4; stroke: #000000; stroke-width: 2"/>
     <use xlink:href="#m65f9b56233" x="316.183516" y="277.665108" style="fill: #1f77b4; stroke: #000000; stroke-width: 2"/>
     <use xlink:href="#m65f9b56233" x="328.834996" y="285.545724" style="fill: #1f77b4; stroke: #000000; stroke-width: 2"/>
     <use xlink:href="#m65f9b56233" x="316.109012" y="286.003175" style="fill: #1f77b4; stroke: #000000; stroke-width: 2"/>
     <use xlink:href="#m65f9b56233" x="325.860565" y="291.661387" style="fill: #1f77b4; stroke: #000000; stroke-width: 2"/>
     <use xlink:href="#m65f9b56233" x="308.303209" y="283.739314" style="fill: #1f77b4; stroke: #000000; stroke-width: 2"/>
     <use xlink:href="#m65f9b56233" x="334.353884" y="295.488" style="fill: #1f77b4; stroke: #000000; stroke-width: 2"/>
     <use xlink:href="#m65f9b56233" x="313.432651" y="294.670382" style="fill: #1f77b4; stroke: #000000; stroke-width: 2"/>
     <use xlink:href="#m65f9b56233" x="320.45238" y="294.131154" style="fill: #1f77b4; stroke: #000000; stroke-width: 2"/>
     <use xlink:href="#m65f9b56233" x="334.118187" y="294.799297" style="fill: #1f77b4; stroke: #000000; stroke-width: 2"/>
     <use xlink:href="#m65f9b56233" x="319.797695" y="294.697002" style="fill: #1f77b4; stroke: #000000; stroke-width: 2"/>
     <use xlink:href="#m65f9b56233" x="338.665806" y="291.447138" style="fill: #1f77b4; stroke: #000000; stroke-width: 2"/>
     <use xlink:href="#m65f9b56233" x="320.355143" y="294.897883" style="fill: #1f77b4; stroke: #000000; stroke-width: 2"/>
     <use xlink:href="#m65f9b56233" x="309.541132" y="295.091742" style="fill: #1f77b4; stroke: #000000; stroke-width: 2"/>
     <use xlink:href="#m65f9b56233" x="315.096875" y="294.750662" style="fill: #1f77b4; stroke: #000000; stroke-width: 2"/>
     <use xlink:href="#m65f9b56233" x="311.931733" y="295.048664" style="fill: #1f77b4; stroke: #000000; stroke-width: 2"/>
     <use xlink:href="#m65f9b56233" x="342.684276" y="294.96156" style="fill: #1f77b4; stroke: #000000; stroke-width: 2"/>
     <use xlink:href="#m65f9b56233" x="333.927996" y="293.806483" style="fill: #1f77b4; stroke: #000000; stroke-width: 2"/>
     <use xlink:href="#m65f9b56233" x="341.192972" y="294.212458" style="fill: #1f77b4; stroke: #000000; stroke-width: 2"/>
     <use xlink:href="#m65f9b56233" x="328.998294" y="294.586767" style="fill: #1f77b4; stroke: #000000; stroke-width: 2"/>
     <use xlink:href="#m65f9b56233" x="328.45767" y="293.863169" style="fill: #1f77b4; stroke: #000000; stroke-width: 2"/>
     <use xlink:href="#m65f9b56233" x="337.700056" y="294.063821" style="fill: #1f77b4; stroke: #000000; stroke-width: 2"/>
     <use xlink:href="#m65f9b56233" x="320.546582" y="294.163031" style="fill: #1f77b4; stroke: #000000; stroke-width: 2"/>
     <use xlink:href="#m65f9b56233" x="315.002027" y="293.814129" style="fill: #1f77b4; stroke: #000000; stroke-width: 2"/>
     <use xlink:href="#m65f9b56233" x="326.797246" y="295.45573" style="fill: #1f77b4; stroke: #000000; stroke-width: 2"/>
     <use xlink:href="#m65f9b56233" x="319.249988" y="294.01165" style="fill: #1f77b4; stroke: #000000; stroke-width: 2"/>
     <use xlink:href="#m65f9b56233" x="317.542203" y="294.203741" style="fill: #1f77b4; stroke: #000000; stroke-width: 2"/>
     <use xlink:href="#m65f9b56233" x="307.873132" y="294.66204" style="fill: #1f77b4; stroke: #000000; stroke-width: 2"/>
     <use xlink:href="#m65f9b56233" x="317.09997" y="291.023394" style="fill: #1f77b4; stroke: #000000; stroke-width: 2"/>
     <use xlink:href="#m65f9b56233" x="322.947181" y="291.551798" style="fill: #1f77b4; stroke: #000000; stroke-width: 2"/>
     <use xlink:href="#m65f9b56233" x="339.129798" y="293.778969" style="fill: #1f77b4; stroke: #000000; stroke-width: 2"/>
     <use xlink:href="#m65f9b56233" x="321.858745" y="295.444663" style="fill: #1f77b4; stroke: #000000; stroke-width: 2"/>
     <use xlink:href="#m65f9b56233" x="317.794442" y="292.879532" style="fill: #1f77b4; stroke: #000000; stroke-width: 2"/>
     <use xlink:href="#m65f9b56233" x="340.006892" y="294.64171" style="fill: #1f77b4; stroke: #000000; stroke-width: 2"/>
     <use xlink:href="#m65f9b56233" x="324.790069" y="294.012743" style="fill: #1f77b4; stroke: #000000; stroke-width: 2"/>
     <use xlink:href="#m65f9b56233" x="330.007471" y="294.569478" style="fill: #1f77b4; stroke: #000000; stroke-width: 2"/>
    </g>
   </g>
  </g>
 </g>
 <defs>
  <clipPath id="p9504f0acdf">
   <rect x="57.6" y="41.472" width="357.12" height="266.112"/>
  </clipPath>
 </defs>
</svg>
